<mxfile host="app.diagrams.net" modified="2024-04-03T16:17:53.667Z" agent="Mozilla/5.0 (X11; Ubuntu; Linux x86_64; rv:124.0) Gecko/20100101 Firefox/124.0" etag="4rFMZ5Xq3_IrBrTo6qCP" version="24.2.2" type="device">
  <diagram name="PÃ¡gina-1" id="Jks0wiikR0Oy_EUZrX-3">
    <mxGraphModel dx="691" dy="408" grid="1" gridSize="10" guides="1" tooltips="1" connect="1" arrows="1" fold="1" page="1" pageScale="1" pageWidth="827" pageHeight="1169" math="0" shadow="0">
      <root>
        <mxCell id="0" />
        <mxCell id="1" parent="0" />
        <mxCell id="TnRPiVpnpAn_v4_r0oWy-3" style="edgeStyle=orthogonalEdgeStyle;rounded=0;orthogonalLoop=1;jettySize=auto;html=1;dashed=1;dashPattern=1 2;" edge="1" parent="1" source="TnRPiVpnpAn_v4_r0oWy-1">
          <mxGeometry relative="1" as="geometry">
            <mxPoint x="109.45499999999993" y="562" as="targetPoint" />
          </mxGeometry>
        </mxCell>
        <mxCell id="TnRPiVpnpAn_v4_r0oWy-1" value="" style="verticalLabelPosition=bottom;sketch=0;aspect=fixed;html=1;verticalAlign=top;strokeColor=none;align=center;outlineConnect=0;shape=mxgraph.citrix.laptop_1;flipH=1;" vertex="1" parent="1">
          <mxGeometry x="74" y="40" width="70.91" height="60" as="geometry" />
        </mxCell>
        <mxCell id="TnRPiVpnpAn_v4_r0oWy-4" style="edgeStyle=orthogonalEdgeStyle;rounded=0;orthogonalLoop=1;jettySize=auto;html=1;dashed=1;dashPattern=1 2;" edge="1" parent="1" source="TnRPiVpnpAn_v4_r0oWy-2">
          <mxGeometry relative="1" as="geometry">
            <mxPoint x="409.7650000000001" y="560" as="targetPoint" />
          </mxGeometry>
        </mxCell>
        <mxCell id="TnRPiVpnpAn_v4_r0oWy-2" value="" style="verticalLabelPosition=bottom;sketch=0;aspect=fixed;html=1;verticalAlign=top;strokeColor=none;align=center;outlineConnect=0;shape=mxgraph.citrix.tower_server;" vertex="1" parent="1">
          <mxGeometry x="383" y="30" width="53.53" height="70" as="geometry" />
        </mxCell>
        <mxCell id="TnRPiVpnpAn_v4_r0oWy-84" value="" style="group" vertex="1" connectable="0" parent="1">
          <mxGeometry x="500" y="20" width="120" height="60" as="geometry" />
        </mxCell>
        <mxCell id="TnRPiVpnpAn_v4_r0oWy-27" value="" style="rounded=0;whiteSpace=wrap;html=1;fillColor=#dae8fc;fontStyle=0;verticalAlign=middle;strokeColor=#000000;rotation=0;" vertex="1" parent="TnRPiVpnpAn_v4_r0oWy-84">
          <mxGeometry x="30" width="90" height="20" as="geometry" />
        </mxCell>
        <mxCell id="TnRPiVpnpAn_v4_r0oWy-28" value="ACK" style="rounded=0;whiteSpace=wrap;html=1;fillColor=#deddda;fontStyle=0;verticalAlign=middle;rotation=0;" vertex="1" parent="TnRPiVpnpAn_v4_r0oWy-84">
          <mxGeometry y="20" width="30" height="20" as="geometry" />
        </mxCell>
        <mxCell id="TnRPiVpnpAn_v4_r0oWy-29" value="U" style="rounded=0;whiteSpace=wrap;html=1;fillColor=none;fontStyle=0;verticalAlign=middle;rotation=0;" vertex="1" parent="TnRPiVpnpAn_v4_r0oWy-84">
          <mxGeometry y="40" width="20" height="20" as="geometry" />
        </mxCell>
        <mxCell id="TnRPiVpnpAn_v4_r0oWy-30" value="A" style="rounded=0;whiteSpace=wrap;html=1;fillColor=none;fontStyle=0;verticalAlign=middle;rotation=0;" vertex="1" parent="TnRPiVpnpAn_v4_r0oWy-84">
          <mxGeometry x="20" y="40" width="20" height="20" as="geometry" />
        </mxCell>
        <mxCell id="TnRPiVpnpAn_v4_r0oWy-31" value="P" style="rounded=0;whiteSpace=wrap;html=1;fillColor=none;fontStyle=0;verticalAlign=middle;rotation=0;" vertex="1" parent="TnRPiVpnpAn_v4_r0oWy-84">
          <mxGeometry x="40" y="40" width="20" height="20" as="geometry" />
        </mxCell>
        <mxCell id="TnRPiVpnpAn_v4_r0oWy-32" value="R" style="rounded=0;whiteSpace=wrap;html=1;fillColor=none;fontStyle=0;verticalAlign=middle;rotation=0;" vertex="1" parent="TnRPiVpnpAn_v4_r0oWy-84">
          <mxGeometry x="60" y="40" width="20" height="20" as="geometry" />
        </mxCell>
        <mxCell id="TnRPiVpnpAn_v4_r0oWy-33" value="S" style="rounded=0;whiteSpace=wrap;html=1;fillColor=none;fontStyle=0;verticalAlign=middle;rotation=0;" vertex="1" parent="TnRPiVpnpAn_v4_r0oWy-84">
          <mxGeometry x="80" y="40" width="20" height="20" as="geometry" />
        </mxCell>
        <mxCell id="TnRPiVpnpAn_v4_r0oWy-34" value="F" style="rounded=0;whiteSpace=wrap;html=1;fillColor=none;fontStyle=0;verticalAlign=middle;rotation=0;" vertex="1" parent="TnRPiVpnpAn_v4_r0oWy-84">
          <mxGeometry x="100" y="40" width="20" height="20" as="geometry" />
        </mxCell>
        <mxCell id="TnRPiVpnpAn_v4_r0oWy-35" value="" style="rounded=0;whiteSpace=wrap;html=1;fillColor=#deddda;fontStyle=0;verticalAlign=middle;rotation=0;" vertex="1" parent="TnRPiVpnpAn_v4_r0oWy-84">
          <mxGeometry x="30" y="20" width="90" height="20" as="geometry" />
        </mxCell>
        <mxCell id="TnRPiVpnpAn_v4_r0oWy-36" value="SEQ" style="rounded=0;whiteSpace=wrap;html=1;fillColor=#dae8fc;fontStyle=0;verticalAlign=middle;strokeColor=#000000;rotation=0;" vertex="1" parent="TnRPiVpnpAn_v4_r0oWy-84">
          <mxGeometry width="30" height="20" as="geometry" />
        </mxCell>
        <mxCell id="TnRPiVpnpAn_v4_r0oWy-90" value="" style="group" vertex="1" connectable="0" parent="1">
          <mxGeometry x="109" y="91.96935556285337" width="301" height="70.06128887429327" as="geometry" />
        </mxCell>
        <mxCell id="TnRPiVpnpAn_v4_r0oWy-87" style="rounded=0;orthogonalLoop=1;jettySize=auto;html=1;startArrow=classic;startFill=1;endArrow=none;endFill=0;" edge="1" parent="TnRPiVpnpAn_v4_r0oWy-90">
          <mxGeometry relative="1" as="geometry">
            <mxPoint y="25.030644437146634" as="targetPoint" />
            <mxPoint x="301" y="55.030644437146634" as="sourcePoint" />
          </mxGeometry>
        </mxCell>
        <mxCell id="TnRPiVpnpAn_v4_r0oWy-62" value="" style="shape=image;imageAspect=0;aspect=fixed;verticalLabelPosition=bottom;verticalAlign=top;image=data:image/png,iVBORw0KGgoAAAANSUhEUgAAATEAAACbCAYAAAAKlaxUAAAWbXRFWHRteGZpbGUAJTNDbXhmaWxlJTIwaG9zdCUzRCUyMmFwcC5kaWFncmFtcy5uZXQlMjIlMjBtb2RpZmllZCUzRCUyMjIwMjQtMDQtMDNUMTUlM0E1OCUzQTU3Ljg2M1olMjIlMjBhZ2VudCUzRCUyMk1vemlsbGElMkY1LjAlMjAoWDExJTNCJTIwVWJ1bnR1JTNCJTIwTGludXglMjB4ODZfNjQlM0IlMjBydiUzQTEyNC4wKSUyMEdlY2tvJTJGMjAxMDAxMDElMjBGaXJlZm94JTJGMTI0LjAlMjIlMjB2ZXJzaW9uJTNEJTIyMjQuMi4yJTIyJTIwZXRhZyUzRCUyMlZYQW9zUXpsM1FFQ3hfeHlBZ2doJTIyJTIwdHlwZSUzRCUyMmRldmljZSUyMiUyMHNjYWxlJTNEJTIyMi41JTIyJTIwYm9yZGVyJTNEJTIyMCUyMiUzRSUwQSUyMCUyMCUzQ2RpYWdyYW0lMjBuYW1lJTNEJTIyUCVDMyVBMWdpbmEtMSUyMiUyMGlkJTNEJTIyNmZJX2tXOFRrZ3lQZEhXV3ozakElMjIlM0UlMEElMjAlMjAlMjAlMjAlM0NteEdyYXBoTW9kZWwlMjBkeCUzRCUyMjgzNCUyMiUyMGR5JTNEJTIyNDkyJTIyJTIwZ3JpZCUzRCUyMjElMjIlMjBncmlkU2l6ZSUzRCUyMjEwJTIyJTIwZ3VpZGVzJTNEJTIyMSUyMiUyMHRvb2x0aXBzJTNEJTIyMSUyMiUyMGNvbm5lY3QlM0QlMjIxJTIyJTIwYXJyb3dzJTNEJTIyMSUyMiUyMGZvbGQlM0QlMjIxJTIyJTIwcGFnZSUzRCUyMjElMjIlMjBwYWdlU2NhbGUlM0QlMjIxJTIyJTIwcGFnZVdpZHRoJTNEJTIyODI3JTIyJTIwcGFnZUhlaWdodCUzRCUyMjExNjklMjIlMjBtYXRoJTNEJTIyMCUyMiUyMHNoYWRvdyUzRCUyMjAlMjIlM0UlMEElMjAlMjAlMjAlMjAlMjAlMjAlM0Nyb290JTNFJTBBJTIwJTIwJTIwJTIwJTIwJTIwJTIwJTIwJTNDbXhDZWxsJTIwaWQlM0QlMjIwJTIyJTIwJTJGJTNFJTBBJTIwJTIwJTIwJTIwJTIwJTIwJTIwJTIwJTNDbXhDZWxsJTIwaWQlM0QlMjIxJTIyJTIwcGFyZW50JTNEJTIyMCUyMiUyMCUyRiUzRSUwQSUyMCUyMCUyMCUyMCUyMCUyMCUyMCUyMCUzQ214Q2VsbCUyMGlkJTNEJTIyMiUyMiUyMHZhbHVlJTNEJTIyJTIyJTIwc3R5bGUlM0QlMjJncm91cCUyMiUyMHZlcnRleCUzRCUyMjElMjIlMjBjb25uZWN0YWJsZSUzRCUyMjAlMjIlMjBwYXJlbnQlM0QlMjIxJTIyJTNFJTBBJTIwJTIwJTIwJTIwJTIwJTIwJTIwJTIwJTIwJTIwJTNDbXhHZW9tZXRyeSUyMHglM0QlMjIxNzAlMjIlMjB5JTNEJTIyMTIwJTIyJTIwd2lkdGglM0QlMjIxMjAlMjIlMjBoZWlnaHQlM0QlMjI2MCUyMiUyMGFzJTNEJTIyZ2VvbWV0cnklMjIlMjAlMkYlM0UlMEElMjAlMjAlMjAlMjAlMjAlMjAlMjAlMjAlM0MlMkZteENlbGwlM0UlMEElMjAlMjAlMjAlMjAlMjAlMjAlMjAlMjAlM0NteENlbGwlMjBpZCUzRCUyMjMlMjIlMjB2YWx1ZSUzRCUyMiUyMiUyMHN0eWxlJTNEJTIycm91bmRlZCUzRDAlM0J3aGl0ZVNwYWNlJTNEd3JhcCUzQmh0bWwlM0QxJTNCZmlsbENvbG9yJTNEJTIzZGFlOGZjJTNCZm9udFN0eWxlJTNEMCUzQnZlcnRpY2FsQWxpZ24lM0RtaWRkbGUlM0JzdHJva2VDb2xvciUzRCUyMzAwMDAwMCUzQnJvdGF0aW9uJTNEMCUzQiUyMiUyMHZlcnRleCUzRCUyMjElMjIlMjBwYXJlbnQlM0QlMjIyJTIyJTNFJTBBJTIwJTIwJTIwJTIwJTIwJTIwJTIwJTIwJTIwJTIwJTNDbXhHZW9tZXRyeSUyMHglM0QlMjIzMCUyMiUyMHdpZHRoJTNEJTIyOTAlMjIlMjBoZWlnaHQlM0QlMjIyMCUyMiUyMGFzJTNEJTIyZ2VvbWV0cnklMjIlMjAlMkYlM0UlMEElMjAlMjAlMjAlMjAlMjAlMjAlMjAlMjAlM0MlMkZteENlbGwlM0UlMEElMjAlMjAlMjAlMjAlMjAlMjAlMjAlMjAlM0NteENlbGwlMjBpZCUzRCUyMjQlMjIlMjB2YWx1ZSUzRCUyMkFDSyUyMiUyMHN0eWxlJTNEJTIycm91bmRlZCUzRDAlM0J3aGl0ZVNwYWNlJTNEd3JhcCUzQmh0bWwlM0QxJTNCZmlsbENvbG9yJTNEJTIzZGVkZGRhJTNCZm9udFN0eWxlJTNEMCUzQnZlcnRpY2FsQWxpZ24lM0RtaWRkbGUlM0Jyb3RhdGlvbiUzRDAlM0IlMjIlMjB2ZXJ0ZXglM0QlMjIxJTIyJTIwcGFyZW50JTNEJTIyMiUyMiUzRSUwQSUyMCUyMCUyMCUyMCUyMCUyMCUyMCUyMCUyMCUyMCUzQ214R2VvbWV0cnklMjB5JTNEJTIyMjAlMjIlMjB3aWR0aCUzRCUyMjMwJTIyJTIwaGVpZ2h0JTNEJTIyMjAlMjIlMjBhcyUzRCUyMmdlb21ldHJ5JTIyJTIwJTJGJTNFJTBBJTIwJTIwJTIwJTIwJTIwJTIwJTIwJTIwJTNDJTJGbXhDZWxsJTNFJTBBJTIwJTIwJTIwJTIwJTIwJTIwJTIwJTIwJTNDbXhDZWxsJTIwaWQlM0QlMjI1JTIyJTIwdmFsdWUlM0QlMjJVJTIyJTIwc3R5bGUlM0QlMjJyb3VuZGVkJTNEMCUzQndoaXRlU3BhY2UlM0R3cmFwJTNCaHRtbCUzRDElM0JmaWxsQ29sb3IlM0Rub25lJTNCZm9udFN0eWxlJTNEMCUzQnZlcnRpY2FsQWxpZ24lM0RtaWRkbGUlM0Jyb3RhdGlvbiUzRDAlM0IlMjIlMjB2ZXJ0ZXglM0QlMjIxJTIyJTIwcGFyZW50JTNEJTIyMiUyMiUzRSUwQSUyMCUyMCUyMCUyMCUyMCUyMCUyMCUyMCUyMCUyMCUzQ214R2VvbWV0cnklMjB5JTNEJTIyNDAlMjIlMjB3aWR0aCUzRCUyMjIwJTIyJTIwaGVpZ2h0JTNEJTIyMjAlMjIlMjBhcyUzRCUyMmdlb21ldHJ5JTIyJTIwJTJGJTNFJTBBJTIwJTIwJTIwJTIwJTIwJTIwJTIwJTIwJTNDJTJGbXhDZWxsJTNFJTBBJTIwJTIwJTIwJTIwJTIwJTIwJTIwJTIwJTNDbXhDZWxsJTIwaWQlM0QlMjI2JTIyJTIwdmFsdWUlM0QlMjJBJTIyJTIwc3R5bGUlM0QlMjJyb3VuZGVkJTNEMCUzQndoaXRlU3BhY2UlM0R3cmFwJTNCaHRtbCUzRDElM0JmaWxsQ29sb3IlM0Rub25lJTNCZm9udFN0eWxlJTNEMCUzQnZlcnRpY2FsQWxpZ24lM0RtaWRkbGUlM0Jyb3RhdGlvbiUzRDAlM0IlMjIlMjB2ZXJ0ZXglM0QlMjIxJTIyJTIwcGFyZW50JTNEJTIyMiUyMiUzRSUwQSUyMCUyMCUyMCUyMCUyMCUyMCUyMCUyMCUyMCUyMCUzQ214R2VvbWV0cnklMjB4JTNEJTIyMjAlMjIlMjB5JTNEJTIyNDAlMjIlMjB3aWR0aCUzRCUyMjIwJTIyJTIwaGVpZ2h0JTNEJTIyMjAlMjIlMjBhcyUzRCUyMmdlb21ldHJ5JTIyJTIwJTJGJTNFJTBBJTIwJTIwJTIwJTIwJTIwJTIwJTIwJTIwJTNDJTJGbXhDZWxsJTNFJTBBJTIwJTIwJTIwJTIwJTIwJTIwJTIwJTIwJTNDbXhDZWxsJTIwaWQlM0QlMjI3JTIyJTIwdmFsdWUlM0QlMjJQJTIyJTIwc3R5bGUlM0QlMjJyb3VuZGVkJTNEMCUzQndoaXRlU3BhY2UlM0R3cmFwJTNCaHRtbCUzRDElM0JmaWxsQ29sb3IlM0Rub25lJTNCZm9udFN0eWxlJTNEMCUzQnZlcnRpY2FsQWxpZ24lM0RtaWRkbGUlM0Jyb3RhdGlvbiUzRDAlM0IlMjIlMjB2ZXJ0ZXglM0QlMjIxJTIyJTIwcGFyZW50JTNEJTIyMiUyMiUzRSUwQSUyMCUyMCUyMCUyMCUyMCUyMCUyMCUyMCUyMCUyMCUzQ214R2VvbWV0cnklMjB4JTNEJTIyNDAlMjIlMjB5JTNEJTIyNDAlMjIlMjB3aWR0aCUzRCUyMjIwJTIyJTIwaGVpZ2h0JTNEJTIyMjAlMjIlMjBhcyUzRCUyMmdlb21ldHJ5JTIyJTIwJTJGJTNFJTBBJTIwJTIwJTIwJTIwJTIwJTIwJTIwJTIwJTNDJTJGbXhDZWxsJTNFJTBBJTIwJTIwJTIwJTIwJTIwJTIwJTIwJTIwJTNDbXhDZWxsJTIwaWQlM0QlMjI4JTIyJTIwdmFsdWUlM0QlMjJSJTIyJTIwc3R5bGUlM0QlMjJyb3VuZGVkJTNEMCUzQndoaXRlU3BhY2UlM0R3cmFwJTNCaHRtbCUzRDElM0JmaWxsQ29sb3IlM0Rub25lJTNCZm9udFN0eWxlJTNEMCUzQnZlcnRpY2FsQWxpZ24lM0RtaWRkbGUlM0Jyb3RhdGlvbiUzRDAlM0IlMjIlMjB2ZXJ0ZXglM0QlMjIxJTIyJTIwcGFyZW50JTNEJTIyMiUyMiUzRSUwQSUyMCUyMCUyMCUyMCUyMCUyMCUyMCUyMCUyMCUyMCUzQ214R2VvbWV0cnklMjB4JTNEJTIyNjAlMjIlMjB5JTNEJTIyNDAlMjIlMjB3aWR0aCUzRCUyMjIwJTIyJTIwaGVpZ2h0JTNEJTIyMjAlMjIlMjBhcyUzRCUyMmdlb21ldHJ5JTIyJTIwJTJGJTNFJTBBJTIwJTIwJTIwJTIwJTIwJTIwJTIwJTIwJTNDJTJGbXhDZWxsJTNFJTBBJTIwJTIwJTIwJTIwJTIwJTIwJTIwJTIwJTNDbXhDZWxsJTIwaWQlM0QlMjI5JTIyJTIwdmFsdWUlM0QlMjJTJTIyJTIwc3R5bGUlM0QlMjJyb3VuZGVkJTNEMCUzQndoaXRlU3BhY2UlM0R3cmFwJTNCaHRtbCUzRDElM0JmaWxsQ29sb3IlM0Rub25lJTNCZm9udFN0eWxlJTNEMCUzQnZlcnRpY2FsQWxpZ24lM0RtaWRkbGUlM0Jyb3RhdGlvbiUzRDAlM0IlMjIlMjB2ZXJ0ZXglM0QlMjIxJTIyJTIwcGFyZW50JTNEJTIyMiUyMiUzRSUwQSUyMCUyMCUyMCUyMCUyMCUyMCUyMCUyMCUyMCUyMCUzQ214R2VvbWV0cnklMjB4JTNEJTIyODAlMjIlMjB5JTNEJTIyNDAlMjIlMjB3aWR0aCUzRCUyMjIwJTIyJTIwaGVpZ2h0JTNEJTIyMjAlMjIlMjBhcyUzRCUyMmdlb21ldHJ5JTIyJTIwJTJGJTNFJTBBJTIwJTIwJTIwJTIwJTIwJTIwJTIwJTIwJTNDJTJGbXhDZWxsJTNFJTBBJTIwJTIwJTIwJTIwJTIwJTIwJTIwJTIwJTNDbXhDZWxsJTIwaWQlM0QlMjIxMCUyMiUyMHZhbHVlJTNEJTIyRiUyMiUyMHN0eWxlJTNEJTIycm91bmRlZCUzRDAlM0J3aGl0ZVNwYWNlJTNEd3JhcCUzQmh0bWwlM0QxJTNCZmlsbENvbG9yJTNEbm9uZSUzQmZvbnRTdHlsZSUzRDAlM0J2ZXJ0aWNhbEFsaWduJTNEbWlkZGxlJTNCcm90YXRpb24lM0QwJTNCJTIyJTIwdmVydGV4JTNEJTIyMSUyMiUyMHBhcmVudCUzRCUyMjIlMjIlM0UlMEElMjAlMjAlMjAlMjAlMjAlMjAlMjAlMjAlMjAlMjAlM0NteEdlb21ldHJ5JTIweCUzRCUyMjEwMCUyMiUyMHklM0QlMjI0MCUyMiUyMHdpZHRoJTNEJTIyMjAlMjIlMjBoZWlnaHQlM0QlMjIyMCUyMiUyMGFzJTNEJTIyZ2VvbWV0cnklMjIlMjAlMkYlM0UlMEElMjAlMjAlMjAlMjAlMjAlMjAlMjAlMjAlM0MlMkZteENlbGwlM0UlMEElMjAlMjAlMjAlMjAlMjAlMjAlMjAlMjAlM0NteENlbGwlMjBpZCUzRCUyMjExJTIyJTIwdmFsdWUlM0QlMjIlMjIlMjBzdHlsZSUzRCUyMnJvdW5kZWQlM0QwJTNCd2hpdGVTcGFjZSUzRHdyYXAlM0JodG1sJTNEMSUzQmZpbGxDb2xvciUzRCUyM2RlZGRkYSUzQmZvbnRTdHlsZSUzRDAlM0J2ZXJ0aWNhbEFsaWduJTNEbWlkZGxlJTNCcm90YXRpb24lM0QwJTNCJTIyJTIwdmVydGV4JTNEJTIyMSUyMiUyMHBhcmVudCUzRCUyMjIlMjIlM0UlMEElMjAlMjAlMjAlMjAlMjAlMjAlMjAlMjAlMjAlMjAlM0NteEdlb21ldHJ5JTIweCUzRCUyMjMwJTIyJTIweSUzRCUyMjIwJTIyJTIwd2lkdGglM0QlMjI5MCUyMiUyMGhlaWdodCUzRCUyMjIwJTIyJTIwYXMlM0QlMjJnZW9tZXRyeSUyMiUyMCUyRiUzRSUwQSUyMCUyMCUyMCUyMCUyMCUyMCUyMCUyMCUzQyUyRm14Q2VsbCUzRSUwQSUyMCUyMCUyMCUyMCUyMCUyMCUyMCUyMCUzQ214Q2VsbCUyMGlkJTNEJTIyMTIlMjIlMjB2YWx1ZSUzRCUyMlNFUSUyMiUyMHN0eWxlJTNEJTIycm91bmRlZCUzRDAlM0J3aGl0ZVNwYWNlJTNEd3JhcCUzQmh0bWwlM0QxJTNCZmlsbENvbG9yJTNEJTIzZGFlOGZjJTNCZm9udFN0eWxlJTNEMCUzQnZlcnRpY2FsQWxpZ24lM0RtaWRkbGUlM0JzdHJva2VDb2xvciUzRCUyMzAwMDAwMCUzQnJvdGF0aW9uJTNEMCUzQiUyMiUyMHZlcnRleCUzRCUyMjElMjIlMjBwYXJlbnQlM0QlMjIyJTIyJTNFJTBBJTIwJTIwJTIwJTIwJTIwJTIwJTIwJTIwJTIwJTIwJTNDbXhHZW9tZXRyeSUyMHdpZHRoJTNEJTIyMzAlMjIlMjBoZWlnaHQlM0QlMjIyMCUyMiUyMGFzJTNEJTIyZ2VvbWV0cnklMjIlMjAlMkYlM0UlMEElMjAlMjAlMjAlMjAlMjAlMjAlMjAlMjAlM0MlMkZteENlbGwlM0UlMEElMjAlMjAlMjAlMjAlMjAlMjAlM0MlMkZyb290JTNFJTBBJTIwJTIwJTIwJTIwJTNDJTJGbXhHcmFwaE1vZGVsJTNFJTBBJTIwJTIwJTNDJTJGZGlhZ3JhbSUzRSUwQSUzQyUyRm14ZmlsZSUzRSUwQWpQjocAACAASURBVHhe7V0JuE1VG/6ECpVSmpMiCsmQeZ6nKxn/IlMKzaQkyVCkjJHpFyUZUkLmKfNwDZVSypAUSqjQHPKvd9+z77/vce7Z++y1zrn3Hu/3POs5556zhu9719rv+dZa31o3k4icUYlCBIgAEchICGSylcUbklhG6jrqSgSIABA4m8R2HTpFaMIg8NqQFwQJQqw4VIhA7BFwPoMkMR/4k8R8gMYiRMAgAiQxTTBJYpoAsjgR0ESAJGYQQE4nNcFkcSLgAwGSmA/QnEXoiWkCyOJEQBMBkphBAOmJaYLJ4kTABwIkMR+g0RPTBI3FiYBBBEhimmByOqkJIIsTAU0ESGIGAeR0UhNMFicCPhAwQmIHvvtGpk4aJ3t27pDv9u2V7w98KxddfInkvupqubXwHZJw93+kQuWakjlLllRVfKl3N5k0foQPE0TubdtJ+r0yOmzZ06dOyeoVi2XV8oXyydaNcvTwj3Li+DG5NNflcuWVV0vp8lWkWu0EKVuhakQ60BOLCC5mJgLGEdAisd9+PSFDBvSUd6dOlFMnT4ZVrmCh22X4uKmSv0ChkPmiSWLLFs6RwUrPfV/vcgWwaPFS0qPvYLmzTEXXvMhAEvMEEzMRgagh4JvEzpw5Iw+3ayIfLplnKXf++RdI3YZN5ZaChZQHdo38dPSwHNz/rYBAjhw+ZOXJli27zFycaOUJFieJwbO67oYbPRt9W+FiUqla7bPy//vvvzK4/7MycczQ5O8uuOBCKaO8rZvzF5RLcl4qv/z8k+z6crts3bxe4K1BMmfOLM/2GyJtHnjMVQeSmCtEzEAEooqAbxIbP2qQDOnf01KuZJkKMvL1GZJbTcuC5e+//5IJo4fIiEF9ra/gkc1eslmyZM2aIquTxN6Zu0ZKlC6vbbizTpBXx8e6S4eHnpTsOS46q+6ffzoio4b2l2mTxgrID9L7pRFy3/2PhNWDJKbdTayACGgh4IvE4IVVLpFXfvzhoLX2tXLr15Iz52VhFenZ9UGZOf1NK8+oie9J7QaNo0pi8AAfub+Z1QY8rvFT5kmJUuVcwVq6YLZ07dxKTp78R7JmPV9mLFgnRYqWSLUcScwVUmYgAlFFwBeJYapYrsi1lmKVq9eRCdMWuCq5ddM6admoqpUP3g28HKeY9MROnz4t9SoVkX17d1tN9B8yTlrc94CrjnaGYQOfl3EjBlp/VqhSU96csZgk5hk9ZiQCsUXAF4nBA6tUPGnNqmzFajJ55jJXrf/88w8ZrsgBckeJ0tJA7VhGi8SWzJ8ljz3Qwqq+8O3F5f0lm+S8885z1dHO8Ocfv0udCoXl0A8HrI9mLd2cqjdGT8wzrMxIBKKCgC8Sw3SyWL5LBQ87yGHsW7OlWq0GWgqa9MR6PNFBZs14y9IHXhS8qUgFU19MgSGPP91HHu2WRMDBQhKLFFnmJwJmEfBFYlDhxee6yNsTRyVrUzehqdzVrJVUrFpLLrwwW8RamiSxqiVvlu8PfifZsueQj3YePWsTwYty2FGtUPR6K2vpcpVlyuwVJDEvwDEPEYgxAr5JDIGindo0ko82rU+hMkItipUsY00zy1WsLkVLlLIWyN3ESWKt2j8sN+TJ61Yk+ftmLe+3Fu8hWA8rfEM2a4cRMV8zF230XE9wxgp33CBHfvxBhXvklZVb9pDEfCPJgkQgegj4JjGLMFRc1WTljc2c9obsVtH6oQSxYXeWrSh3NW0ldRKapOql6QS7Lk/cKXny5rOaR6hE2cLXWO+r1Kgnr09NimPzIw2rF5edO7Zb8W2ffnOCJOYHRJYhAlFGQIvEnLrt3fOVbFq/WjZtWC2bVTp65MezVM91eW4ZOubtkGtUpkjMuXNatWZ9FVox1zeECdWKqUDYz61p6ad7j5PEfCPJgkQgeggYI7FgFUFqG9etlOWLPpDE9auSo+GxETBu8hwBwTjF1JqYyelkxWJ55PCh7zmdjN74Y81EQBuBqJGYU7OD+/dJn2celTXqADYEa0xLN+xIsVZmisRQv4mFfUxLEQuHnVgcCp/8/nJ6YtrDjRUQAfMI+CIx3ATxy89HJUeOi8+KvE9NRUTAN69fXnZs32ZlmbNsqxS6vVhydpMk5gyxmPTuEilfuUbEyM19f5o89Ugbq1zXHi/IQ12SjlgFC0MsIoaWBYiAUQR8kVjnNnfLiqXzrTOI274+5lmhUUNflJGD+1n5R7z+jtRrmHQsCGKSxJzBrjgyhEPn4YJdjx/7WRLXrbI2HmxpXKuUfLH9E+vP+Su3SYHbipDEPPc0MxKB2CHgi8SchDN72RYrKt6LPPdkR3lP7WRCEHeF+KtokFjwsaMBw8ZLcxWGEUrgIbZtVltwLKp1h0flWXUND3Ts80zSwe8adRpawbypCT0xLz3PPEQgegj4IrFEtWDfplktSyscqp4ya4VrQCmmnwlVi1nX8lx8SU7ZsP2g4GaJaJAY6nQeAMfh9AnTF1jHnYIFhIc70ezreuC57frqC/nnn7/DXh1k10MSi97gZM1EwAsCvkgMFbduUsMKp4Dgep2Br05M9Xwhbn7t0qmlfPbJFis/vJ32nbum0M/kdDIUMSLW66Euz0q7Tl1Cxqrh9AFOITgF4SANm9wbFkeSmJdhxjxEIHoI+CYxHAJv1bi6uo76a0s7XCRYsnQFKaw8mcvUlc8n1U2viNnau1vFjymywy4f5K6mLWXI6MlnWaQTsY/KcEsFrgVyCqL2B73YQ94YOyz5Y8R84SzlzfkKKo/wEhUce1R5Xp+rNbGVVrS/LVhDe7rXQOnwcDeSWPTGH2smAtoI+CYxtIwYqhd7dREspLtJpkyZpNm97aX3wJEpppGhvCa3ukJ9jzvNrrs+9G2wkVxPjelx5sxZZEviWqsZeGJYU0vtPCg9MT+9xTJEwBwCWiRmq7F921ZZqi4hTFy3Ql1fc1B+Ud5NjosuVqSSR65TZyAL3FpEGja+R/LmK5Cq5joR+6g0HInhexyRWvXhIlm5bIFswz8KOXJYfj1xXK68+lpLz/zqyuzmrTpYmxTI279XV/XPT8Za+nZ5pp883PW5kLqTxMwNRtZEBPwgYITE/DScEcpMU//Baf7sd+StmUtTPcROEssIPUkd4xkBkphL72JdLVyMGUksnh8P2pYRECCJafYSSUwTQBYnApoIkMQMAsj/AK4JJosTAR8IkMR8gOYsQk9ME0AWJwKaCJDEDAJIT0wTTBYnAj4QIIn5AI2emCZoLE4EDCJAEtMEk9NJTQBZnAhoIkASMwggp5OaYLI4EfCBAEnMB2icTmqCxuJEwCACJDFNMDmd1ASQxYmAJgIkMYMAcjqpCSaLEwEfCJDEfIDG6aQmaCxOBAwiQBLTBJPTSU0AWZwIaCJAEjMIIKeTmmCyOBHwgQBJzAdonE5qgsbiRMAgAq4k9thTvQ02F39VbVZXb9v/a6BM+SrxZyAtIgLpHIGD+7+VA+ofdAckk/NN0qX4FCJABIhAxkGAJJZx+oqaEgEiEAKBs0ls79e7iFQYBFq2ai2JiZusHMSKQ4UIxB6BESNfkxEjXkt9OskHM3ynkMRiP2jZIhFwIkAS0xwPJDFNAFmcCGgiQBLTBJAkpgkgixMBTQRIYpoAksQ0AWRxIqCJAElME0CSmCaALE4ENBEgiWkCSBLTBJDFiYAmAiQxTQBJYpoAsjgR0ESAJKYJIElME0AWJwKaCESFxJ56qrvMmj0nWbUxo1+TunXrRKzqFzt2yMKFi2TDho3yww8/yLFjx+Xyyy+XG/PkkTw35pGmTRpLqVJ3hq23fIXKcujQIcmdO7dsSlzvqsPp06fl0ceekCVLllp5b721oEyd+rZcdumlIcuSxFwhZQYiEFUEjJPYX3/9JaVKl5Pff/89WfE6dWrL2DGjPBvy888/y/O9+8rixUvkzJnwRzirVq0ivZ7rKTfffFPI+iMhMRBY167dZP6ChVZdBQsWkGkgsMsuS1V3kpjnbmVGIhAVBIyTGAjg8ce7pFD2ggsukC2bN8pFF13kasR3+/dLmzbt5bvvvrPyZs6cWcqVK2sRSo7sOeTAgQPyzb598umnn8m///5r5bn22mtl7gezJFeuXGfV75XEUNdTTz8jc+Z8YNVRoAAIbHLIOp2NkMRcu5QZiEBUETBOYh07PSTLl39oKV2/fj1rOggZPPgVa/oXTv78809p3KS57NqVdF6zXr260vv5XnLVVVeeVeyrr3bKwJdfkbVr11nflS1TRt5+e5JFek7xQmLw9p7p0VNmznzfKnrLLbfI9GlvuxIY8pLEojo+WTkRcEXAKIlhzapM2fJy8uRJueOOovLKyy9J3XoJlhKVKlWUtya9EVYhTCGnTp1m5bnvvlbyQr8+YfNj+gcS2bJlq5XvjTcmSNUqlSMiMRBYr169Zfo7M5IILH9+maYIDGtvXoQk5gUl5iEC0UPAKIlNm/6ORQiQPn2el7ZtWkvtOvVkz56vLQ8pceO6VMkBC/dVqtaQU6dOyZVX5pbVq1YIpqFugmll4ybNrGzNmjWVQa8MjIjE+vZ7QSZPnmKVyZ8/n7UGdsUVV7g1m/w9ScwzVMxIBKKCgFES+889LS2vCISFnUCsUTkb6Ne3j7Ru3SqkIYMGDZFx/x1vfde7dy9p17aNZ4MTGjaSI0eOyiWXXCyLFy1IMaUMN53sP2Cg8t7etNrJl+9mi8CwixmJkMQiQYt5iYB5BIyR2Pfffy+VKlezdhOrVasqEyckEdLuPXukTp361vuSJUvIe+++E9KKBgl3yZdffiU5cuSQrVsSPXlhXuBIjcScpImdzenTpkRMYGifJOalF5iHCEQPAWMkBi8KxAAZOfJVSWiQRFwQrIthsT5TpkyyZvUKue6661JYdPz4cSlRsrRFgEUKF5a5c2cbszgUiQ0b9qqMGj3GauOmm/IqAptqTWH9CEnMD2osQwTMIWCMxOrVT5CdO3dZnhTCKS688MJkLV8bNVqGDx9h/d29+1PSuVPHFBbAA4MnBsGO5OhRI41ZGExiTl3QCEI3PpgzS84//3xfbZLEfMHGQkTAGAJGSAxelr0LGWpxfe/eb6RmraSI/dtuu1UWzJ+bwoD16zdI6zbtrM86PviA9OjR3ZiBThJr375tsreYM2dOgQeo2yZJzFhXsSIi4AsBIyQ2aPBQGTfuv5YCU6dMtoJTg6V+g4aC2C7IkiULrVAGW9asWSvt2new/uzcuZN0f7qbL2NCFbJJ7LzzzksOjsUJgr59egs2BH766SfBd1gTczvCFKp+kpixrmJFRMAXAtokhnWsylWqy8GDB+Xqq66SdetWW6QQLKNHj5Whw4ZbHz/6yMPy5JP/j+r//Isv5K67kgJhozWdtPWpXaumjFLT1SxZssjSZcsVaT5sfXXDDdfLwgXzrOlwJEISiwQt5iUC5hHQJjGEVCC0IhLJow5wr1q5PLnIkSNHVJBsBevvQoVuk/nzko7+eJUDBw7Ktk8/tbLDw8M6ly22J4a/a9WsKaNHJxGYLc7D6i1aNJeXBw7w2qyVjyQWEVzMTASMI6BNYs8/30emTpsesWJzZr8vRYvenlyuWvVa8u2330r27Nnko62bIwqxGDJ0mIwZM86qCyQEMgomMayBbd60QbJmzZpC119//dVaz0OwLeT18eOkRo3qnu0hiXmGihmJQFQQ0CIxRNeXKVNefjl2zDrcPWDAi1YYRWqCtS/7fOL97dup6P6eyVl79+knU6ZMtf7Gwj4W+L1Ks+b3yMcff2xlnzdvjhQuVOgsEgt3FQ82Ftq0bW+FeOC40ZLFCzydm0QjJDGvvcR8RCA6CGiR2IcfrpAHO3a2NMPhbhzyDifwtOBxQRCXtWH92uT1s927d0u9+g2txXd4TatXfagi8C9xtRpHmnC0CYL4s7VrVqYo4+UAOAo4jx9h3WzcuKQ4MjchibkhxO+JQHQR0CIxXLlj37016c2JUrlyJVdtsYCPhXzIVHXVTbmy/9/JfOKJrjJv/gLru4YJDWTYsCFn3UrhbAAHwO9teZ9s3fqR9XG3J7vKI4885IvEcINGg4RGsk9d8wPxcusG8pHEXLucGYhAVBHwTWJ//PGHdfkhHn6ckcRZyeBrcEJp7ozsv+eeFvLSgP7J2TAtbdSosboz7KD1WYUK5dVNFn2tqPpgwTGn7s88a936CsGdYsuWLpJs2bL5IjEU+uSTbdLiP/cKyBHT40UL5511uiBYD5JYVMcnKycCrgj4JrHZ6vrpbuoaaoiXa3NsTfbvP6Buq0haOA+12I5YMqxPHT161MqDcI0SJYqrTYCikkvdsHrs+DEr3mzjxkSLbCAIi5jxzjRrZzNYvE4n7XKDhwyVsWOTYt5wRxm8xXDrfCQx1zHGDEQgqgj4JjEEp2KhHvLujOly550lPSt6d+Om8tln2638oXYDsVOIW1ZBVG4C4np1+DDrGp1QEimJ4S406IejUJDnej4rHTq0T1UNkphbD/F7IhBdBHyRGKLcy5araHlC11xzjaxbuyqstxJswoQJb8hLA1+2Pm7YMEFGvDospJWbNm2WhYsWyebNW+Twj4flhAqHgNeVO/cVUrx4camn/vkI7tgP5ylFSmJQBJ5eo7ubWJc74kzlPHUgHbe9hhKSWHQHKGsnAm4I+CIxt0rPpe9JYudSb9PW9IgASUyzV0himgCyOBHQRIAkpgkgSUwTQBYnApoIkMQ0ASSJaQLI4kRAEwGSmCaAJDFNAFmcCGgiQBLTBJAkpgkgixMBTQRIYpoAksQ0AWRxIqCJAElME0CSmCaALE4ENBEgiWkCSBLTBJDFiYAmAiQxTQBJYpoAsjgR0ESAJKYJIElME0AWJwKaCJDENAEkiWkCyOJEQBMBkpgmgCQxTQBZnAhoIkAS0wSQJKYJIIsTAU0ESGKaAJLENAFkcSKgiQBJTBNAkpgmgCxOBDQRcCWxsmXLaDaRdsWPqTv7f/vtd0uB66+/LiqK7NjxpZw4ccKq+4knHotKG6yUCBCB1BHA5amJiZvsDMn/MxJvzhA4IkAEiEAGQ4AklsE6jOoSASKQEoGQJJb6v/RO//DhP+lWDahJO9K+v9gfad8HTg3ipT/6KKP6Bj/nzukkH/60H3jxMthoR9qPJZJY+uoDV2340LhCFNMM7I+Ywu3aWLz0Bz0x165O+wzxMthoR9qPJXpi6asPXLXhQ+MKUUwzsD9iCrdrY/HSH/TEXLs67TPEy2CjHWk/luiJpa8+cNWGD40rRDHNwP6IKdyujcVLf9ATc+3qtM8QL4ONdqT9WKInlr76wFUbPjSuEMU0A/sjpnC7NhYv/RE1T6ykgnBrAMZR6tXrwUJnuXGq3EOuXZF6hmh2EuLnvlHpxkDzp9UrDmj+qKFvakVN2VFHNbDYRb8z6vsDKu1SabtKQ1Q6aMgmU3b8qfS50INOv6o8XwfSdPX6vocyXrKYssPZ1sWBsV5aveYLJIypHwL6z1Svs1VKOqhrRkzaMVyp1MWnWtdrjjGSmE/gK6pya4PKPq7+fs1nfeGKmRpsXkgsWA+coO+t0jADdpmywyuJBau8WX3QVCWQtI6YssPWoZt686xKl7so9ZP6voNKH+go7yhr0g6SmAPYjOKJjVU6dw4aTBvV3+UNDTBnNaYGm5PEUOeSELpmU5/BE6ih0jWO7xuo9ws1bTNlh01i8Hrx8ISSzOrDK1UqpFItR4YPA3/D4/QrpuxA+yAweLu2LFNvMI6+VekileDp11SpqCPP/er9m36Vd5QzaYeTxDCD2heBfmNUXnjNfoWemA/ksqoycPPxy4mpFgacTV43q/eYZpoUU4PNSWL9lYLPh1Eyu/oO3lenQB54L/lV+lvDMFN22CT2udLldg/6VFJ5QA4XBPI2U686U0tTdmDMrFEJhHtYpfoqfZSKPY3U59NUQr/AOwap7fVge7gspuxAG04SwyxlvaZukRQniUWCViBvgnqdF3g/SL3uV8meRvZU7wf6qDMWgy0SEoM+WVT6WCWbKIqr99s0bDP10ERKYlC5n0qYFkPQP+gnv2LKjqlKgZYBJeD5rnBRqLX6fnIgD8Ybli90xJQd0IEk5uiJjDCdxCLxPQGd8Yt4VCV4KuephMVwp+uvM8jssqYGW6QkhvYHq/RUQJFW6hXegF8xZYcfEgNJLA8ojh+gu/waocqZsmOHqus2lX5T6VKVsJAfTjADwMI+NjW8eqHh6jNlB9ogiTmQTu8khnUKrMXArf9UpWIB3Z0Dooj67AuNhyS4qKnB5ofEnlHKvBxQCGQ2VMMuU3b4ITH00ycB3bEwfnc6sGO30sGeomN38qQHnbqrPFirxCI/lgR0xFR/kMSCeiG9k9h9St+3Azo/rV7tRVmEgmCBEjJApV46oyuorKnB5ofE4HndG9CnoXqdr2GXKTv8kFhzpfe7Ad1BxLZ36cccU3Zgo6ReQIFX1Ct2KHU2HCK1xZQdJLEMRmKLlL51VfpXpRtU+j6g/1XqFYv8WKTFgit2+EyJqcEWKYndqQzYoBKmMZC8KmETw6+YsiNSEsM0HwvoFQKK63rKpuxoovRxbjBsUX//VyVMd7HQH20xZQf05HTS0Vvp2RPDlj2ICgveWF9xbt3DBGzfVw/YUla9Jv/3As3RaGqweSExrLfcpBLWjOAZ5Azojt292unEDi8kBuK6WiWEWMAOu18wPcZmjI6Y6g/ogAX6R4OUgTf2mUpY6EdbIODjOgqnUtakHU4SG63a87JDj4Bqe4NMxzzuTkaAHk4djAzkb6te7Z0iuwqEIyBGBjJCJb8RzMEqmRpsfoJdocs+leDF2F5nBJClyGrKDj/BrkeUJk+qNMWv8o5ypuywq8T6HIgMRBvqJmUs+GOX+D2V3lLJlJdm0g4/wa44hYBpvq6QxCJAEEGI8LD+UAm/8sEBernVZ4gfw5TykEo4hoRpp66YGmyRkhh0x/QG4QjHdI1Q5U3Z4YfE4NngRwheja6YsiNYD4ypqo5UMISiWPxHfzgDZP3aY9IOkpijF9LrdBJBrDiHB8FiN8INQgmmXYiwhuAVU0xdMTXYvETsQ9e/VNqpEh58Xe/LabspO7xE7KNdBCMjxg1rmBB4NNicwLqmjpiyw00H7EJWCegMvbGDaQs2Anq4VeDyvUk7uCbmADu9khii21+IcNBMVPkfiLBMqOymBpuXNTED6qZahSk7vKyJOZVwBicjNquwppGm7IhEDYT2YNpk76qeUu/vUAn2+BWTdsQ9iWGhL3jxMjXgsSOGXRpIerrF4kulz60RjhZMwbBr+U+E5YKzmxps5yqJAc+5KsGbgejemmCiP/BjjV1SCNa6sEThRXAjzCOBjFjjS+3sqJe6TNhhtxOXJFZAWYcpCQRXiGA72Ys0VplmBTLqusymOqmE0sc+05ao3r/qYkhX9X2ZQB4s2ureOmDKjnOZxJyedCnVJ/Y1UV7GZHAeE/0BArIDhyPRp7IqtzqgEOISbUJLKzvimsRyKOvgiSAcYZ9K2Lb3Ii+pTNgSh+CWCCws+xUTgw1tY7Bh0EHaqzTJRSFMIV8P5JmhXu0jSmltx7lMYrjCZkKgAxAqgrVLv2JiXOFA95yAArjJwutVR85g676qHM6E+hUTdthtx6UnBuOccVMPOgZRaqAjQBQeD2KTsDN2o0o6dz+Z6CTEG+GA97Uq4QYHTA/dYnZyqTw4mgQCxzQBZXA+zq+YsANtn8sk5vxhwawAswO/YqI/LlONfxMY6/ixx9TS7fJJjEVsStjxeuXUe8wM/IoJO+y245bEEPdi785haxjTLCx2Y/crWBA4isA/e1sZnkxHv70TKGeik5w2RDIttiP7oUp6OThNEksaGG1VCo7xi2SomRhXaA8L9X0DDeMSAdxKgcsFQgkOiCNIF84ARPcQO+owZQfqilsSg3E4R+i89gQeyiqV9qkEMsM0E7c+2AepUQYL+whP0L2K10QngXRxCR2khUpYhPUi7VSmNwMZF6hX7JD5FRN2oO1zmcSca60vKizsa3n89Imp/sBxLgR8Om/UwC0ouIsL8YbYgcQpkTwqIUwEF1ZCsMmEeMX08HzY+MU1icFIPPwgM5zYDyeYcmH9CYF8OtMvuw3dwYZL9EC6mN5CHwwobO97Efxyouz5KsELtW8e8FI2OI+uHXZ95zKJ4S40RL1DcNwF4QmhZgRe+sdUf6AtjA+E7uB0h31pYzgdcCU6PElMRXXFpB1xT2IAG7867VTCbZYgs1tUwnU2CCDFlSS4HwkhFaaOVKBN3U5yHtDFcRVcSheJwOW3PTAcSRofSWFHXl077KrOZRLDcR78qOBUBQQPnb1ZE2m3mOoPZ7tY/8WNs/C4sDaMH8wzKu1TCYfu96iEw+LB/9chUt2d+U3acU6QmA7Yfsua7CS/OpgoRztMoGiuDvaHOSxN1ORcW0w+e4o3+BWAhDqQaqLhWNTBwRYLlL23wf7wjlUscsZLf5DEYjFaNNuIl8FGOzQHguHi8dIfJDHDAyMa1cXLYKMd0Rgd/uuMl/4gifkfAzErGS+DjXbEbMh4aihe+oMk5qm70zZTvAw22pG24yi49XjpD5JY+hpXIbWJl8FGO9LXYIuX/iCJpa9xRRJjf8QMAZJYzKD231C8dBLt8D8GolGS/RENVP3XSU/MP3YxK8mHJmZQe2qI/eEJpphlIonFDGr/DfGh8Y9dNEqyP6KBqv86SWL+sYtZST40MYPaU0PsD08wxSwTSSxmUPtviA+Nf+yiUZL9EQ1U/ddJEvOPXcxK8qGJGdSeGmJ/eIIpZplIYjGD2n9DfGj8YxeNkuyPaKDqv06SmH/sYlaSD03MoPbUEPvDE0wxy+RKYn1jpor5htqpKvMGqqUd5vGNtEb2R6SIRTd/vPRHVQUTEiTkfWLRhZG1EwEiQATMIUASM4clayICRCANEEhBYmnQPpskAkSACJhBICNfSW0GAdZCBIhAhkaAJJahu4/KTpjAHgAAAAlJREFUEwEi8D9uF3Rutd8U6gAAAABJRU5ErkJggg==;rotation=5;" vertex="1" parent="TnRPiVpnpAn_v4_r0oWy-90">
          <mxGeometry x="51.97" y="5.030644437146634" width="118.06" height="60" as="geometry" />
        </mxCell>
        <mxCell id="TnRPiVpnpAn_v4_r0oWy-107" value="8000" style="rounded=0;whiteSpace=wrap;html=1;strokeColor=none;fillColor=none;rotation=5;" vertex="1" parent="TnRPiVpnpAn_v4_r0oWy-90">
          <mxGeometry x="82.03000000000003" y="11.030644437146634" width="88" height="12.37" as="geometry" />
        </mxCell>
        <mxCell id="TnRPiVpnpAn_v4_r0oWy-92" value="" style="group" vertex="1" connectable="0" parent="1">
          <mxGeometry x="110" y="158.96935556285337" width="300" height="70.06128887429327" as="geometry" />
        </mxCell>
        <mxCell id="TnRPiVpnpAn_v4_r0oWy-91" style="rounded=0;orthogonalLoop=1;jettySize=auto;html=1;startArrow=classic;startFill=1;endArrow=none;endFill=0;" edge="1" parent="TnRPiVpnpAn_v4_r0oWy-92">
          <mxGeometry relative="1" as="geometry">
            <mxPoint x="300" y="25.030644437146634" as="targetPoint" />
            <mxPoint y="55.030644437146634" as="sourcePoint" />
          </mxGeometry>
        </mxCell>
        <mxCell id="TnRPiVpnpAn_v4_r0oWy-105" value="" style="rounded=0;whiteSpace=wrap;html=1;strokeColor=none;fillColor=#f8cecc;rotation=-5;opacity=80;" vertex="1" parent="TnRPiVpnpAn_v4_r0oWy-92">
          <mxGeometry x="143" y="46.030644437146634" width="20" height="20" as="geometry" />
        </mxCell>
        <mxCell id="TnRPiVpnpAn_v4_r0oWy-63" value="" style="shape=image;imageAspect=0;aspect=fixed;verticalLabelPosition=bottom;verticalAlign=top;image=data:image/png,iVBORw0KGgoAAAANSUhEUgAAATEAAACbCAYAAAAKlaxUAAAWbXRFWHRteGZpbGUAJTNDbXhmaWxlJTIwaG9zdCUzRCUyMmFwcC5kaWFncmFtcy5uZXQlMjIlMjBtb2RpZmllZCUzRCUyMjIwMjQtMDQtMDNUMTUlM0E1OCUzQTU3Ljg2M1olMjIlMjBhZ2VudCUzRCUyMk1vemlsbGElMkY1LjAlMjAoWDExJTNCJTIwVWJ1bnR1JTNCJTIwTGludXglMjB4ODZfNjQlM0IlMjBydiUzQTEyNC4wKSUyMEdlY2tvJTJGMjAxMDAxMDElMjBGaXJlZm94JTJGMTI0LjAlMjIlMjB2ZXJzaW9uJTNEJTIyMjQuMi4yJTIyJTIwZXRhZyUzRCUyMlZYQW9zUXpsM1FFQ3hfeHlBZ2doJTIyJTIwdHlwZSUzRCUyMmRldmljZSUyMiUyMHNjYWxlJTNEJTIyMi41JTIyJTIwYm9yZGVyJTNEJTIyMCUyMiUzRSUwQSUyMCUyMCUzQ2RpYWdyYW0lMjBuYW1lJTNEJTIyUCVDMyVBMWdpbmEtMSUyMiUyMGlkJTNEJTIyNmZJX2tXOFRrZ3lQZEhXV3ozakElMjIlM0UlMEElMjAlMjAlMjAlMjAlM0NteEdyYXBoTW9kZWwlMjBkeCUzRCUyMjgzNCUyMiUyMGR5JTNEJTIyNDkyJTIyJTIwZ3JpZCUzRCUyMjElMjIlMjBncmlkU2l6ZSUzRCUyMjEwJTIyJTIwZ3VpZGVzJTNEJTIyMSUyMiUyMHRvb2x0aXBzJTNEJTIyMSUyMiUyMGNvbm5lY3QlM0QlMjIxJTIyJTIwYXJyb3dzJTNEJTIyMSUyMiUyMGZvbGQlM0QlMjIxJTIyJTIwcGFnZSUzRCUyMjElMjIlMjBwYWdlU2NhbGUlM0QlMjIxJTIyJTIwcGFnZVdpZHRoJTNEJTIyODI3JTIyJTIwcGFnZUhlaWdodCUzRCUyMjExNjklMjIlMjBtYXRoJTNEJTIyMCUyMiUyMHNoYWRvdyUzRCUyMjAlMjIlM0UlMEElMjAlMjAlMjAlMjAlMjAlMjAlM0Nyb290JTNFJTBBJTIwJTIwJTIwJTIwJTIwJTIwJTIwJTIwJTNDbXhDZWxsJTIwaWQlM0QlMjIwJTIyJTIwJTJGJTNFJTBBJTIwJTIwJTIwJTIwJTIwJTIwJTIwJTIwJTNDbXhDZWxsJTIwaWQlM0QlMjIxJTIyJTIwcGFyZW50JTNEJTIyMCUyMiUyMCUyRiUzRSUwQSUyMCUyMCUyMCUyMCUyMCUyMCUyMCUyMCUzQ214Q2VsbCUyMGlkJTNEJTIyMiUyMiUyMHZhbHVlJTNEJTIyJTIyJTIwc3R5bGUlM0QlMjJncm91cCUyMiUyMHZlcnRleCUzRCUyMjElMjIlMjBjb25uZWN0YWJsZSUzRCUyMjAlMjIlMjBwYXJlbnQlM0QlMjIxJTIyJTNFJTBBJTIwJTIwJTIwJTIwJTIwJTIwJTIwJTIwJTIwJTIwJTNDbXhHZW9tZXRyeSUyMHglM0QlMjIxNzAlMjIlMjB5JTNEJTIyMTIwJTIyJTIwd2lkdGglM0QlMjIxMjAlMjIlMjBoZWlnaHQlM0QlMjI2MCUyMiUyMGFzJTNEJTIyZ2VvbWV0cnklMjIlMjAlMkYlM0UlMEElMjAlMjAlMjAlMjAlMjAlMjAlMjAlMjAlM0MlMkZteENlbGwlM0UlMEElMjAlMjAlMjAlMjAlMjAlMjAlMjAlMjAlM0NteENlbGwlMjBpZCUzRCUyMjMlMjIlMjB2YWx1ZSUzRCUyMiUyMiUyMHN0eWxlJTNEJTIycm91bmRlZCUzRDAlM0J3aGl0ZVNwYWNlJTNEd3JhcCUzQmh0bWwlM0QxJTNCZmlsbENvbG9yJTNEJTIzZGFlOGZjJTNCZm9udFN0eWxlJTNEMCUzQnZlcnRpY2FsQWxpZ24lM0RtaWRkbGUlM0JzdHJva2VDb2xvciUzRCUyMzAwMDAwMCUzQnJvdGF0aW9uJTNEMCUzQiUyMiUyMHZlcnRleCUzRCUyMjElMjIlMjBwYXJlbnQlM0QlMjIyJTIyJTNFJTBBJTIwJTIwJTIwJTIwJTIwJTIwJTIwJTIwJTIwJTIwJTNDbXhHZW9tZXRyeSUyMHglM0QlMjIzMCUyMiUyMHdpZHRoJTNEJTIyOTAlMjIlMjBoZWlnaHQlM0QlMjIyMCUyMiUyMGFzJTNEJTIyZ2VvbWV0cnklMjIlMjAlMkYlM0UlMEElMjAlMjAlMjAlMjAlMjAlMjAlMjAlMjAlM0MlMkZteENlbGwlM0UlMEElMjAlMjAlMjAlMjAlMjAlMjAlMjAlMjAlM0NteENlbGwlMjBpZCUzRCUyMjQlMjIlMjB2YWx1ZSUzRCUyMkFDSyUyMiUyMHN0eWxlJTNEJTIycm91bmRlZCUzRDAlM0J3aGl0ZVNwYWNlJTNEd3JhcCUzQmh0bWwlM0QxJTNCZmlsbENvbG9yJTNEJTIzZGVkZGRhJTNCZm9udFN0eWxlJTNEMCUzQnZlcnRpY2FsQWxpZ24lM0RtaWRkbGUlM0Jyb3RhdGlvbiUzRDAlM0IlMjIlMjB2ZXJ0ZXglM0QlMjIxJTIyJTIwcGFyZW50JTNEJTIyMiUyMiUzRSUwQSUyMCUyMCUyMCUyMCUyMCUyMCUyMCUyMCUyMCUyMCUzQ214R2VvbWV0cnklMjB5JTNEJTIyMjAlMjIlMjB3aWR0aCUzRCUyMjMwJTIyJTIwaGVpZ2h0JTNEJTIyMjAlMjIlMjBhcyUzRCUyMmdlb21ldHJ5JTIyJTIwJTJGJTNFJTBBJTIwJTIwJTIwJTIwJTIwJTIwJTIwJTIwJTNDJTJGbXhDZWxsJTNFJTBBJTIwJTIwJTIwJTIwJTIwJTIwJTIwJTIwJTNDbXhDZWxsJTIwaWQlM0QlMjI1JTIyJTIwdmFsdWUlM0QlMjJVJTIyJTIwc3R5bGUlM0QlMjJyb3VuZGVkJTNEMCUzQndoaXRlU3BhY2UlM0R3cmFwJTNCaHRtbCUzRDElM0JmaWxsQ29sb3IlM0Rub25lJTNCZm9udFN0eWxlJTNEMCUzQnZlcnRpY2FsQWxpZ24lM0RtaWRkbGUlM0Jyb3RhdGlvbiUzRDAlM0IlMjIlMjB2ZXJ0ZXglM0QlMjIxJTIyJTIwcGFyZW50JTNEJTIyMiUyMiUzRSUwQSUyMCUyMCUyMCUyMCUyMCUyMCUyMCUyMCUyMCUyMCUzQ214R2VvbWV0cnklMjB5JTNEJTIyNDAlMjIlMjB3aWR0aCUzRCUyMjIwJTIyJTIwaGVpZ2h0JTNEJTIyMjAlMjIlMjBhcyUzRCUyMmdlb21ldHJ5JTIyJTIwJTJGJTNFJTBBJTIwJTIwJTIwJTIwJTIwJTIwJTIwJTIwJTNDJTJGbXhDZWxsJTNFJTBBJTIwJTIwJTIwJTIwJTIwJTIwJTIwJTIwJTNDbXhDZWxsJTIwaWQlM0QlMjI2JTIyJTIwdmFsdWUlM0QlMjJBJTIyJTIwc3R5bGUlM0QlMjJyb3VuZGVkJTNEMCUzQndoaXRlU3BhY2UlM0R3cmFwJTNCaHRtbCUzRDElM0JmaWxsQ29sb3IlM0Rub25lJTNCZm9udFN0eWxlJTNEMCUzQnZlcnRpY2FsQWxpZ24lM0RtaWRkbGUlM0Jyb3RhdGlvbiUzRDAlM0IlMjIlMjB2ZXJ0ZXglM0QlMjIxJTIyJTIwcGFyZW50JTNEJTIyMiUyMiUzRSUwQSUyMCUyMCUyMCUyMCUyMCUyMCUyMCUyMCUyMCUyMCUzQ214R2VvbWV0cnklMjB4JTNEJTIyMjAlMjIlMjB5JTNEJTIyNDAlMjIlMjB3aWR0aCUzRCUyMjIwJTIyJTIwaGVpZ2h0JTNEJTIyMjAlMjIlMjBhcyUzRCUyMmdlb21ldHJ5JTIyJTIwJTJGJTNFJTBBJTIwJTIwJTIwJTIwJTIwJTIwJTIwJTIwJTNDJTJGbXhDZWxsJTNFJTBBJTIwJTIwJTIwJTIwJTIwJTIwJTIwJTIwJTNDbXhDZWxsJTIwaWQlM0QlMjI3JTIyJTIwdmFsdWUlM0QlMjJQJTIyJTIwc3R5bGUlM0QlMjJyb3VuZGVkJTNEMCUzQndoaXRlU3BhY2UlM0R3cmFwJTNCaHRtbCUzRDElM0JmaWxsQ29sb3IlM0Rub25lJTNCZm9udFN0eWxlJTNEMCUzQnZlcnRpY2FsQWxpZ24lM0RtaWRkbGUlM0Jyb3RhdGlvbiUzRDAlM0IlMjIlMjB2ZXJ0ZXglM0QlMjIxJTIyJTIwcGFyZW50JTNEJTIyMiUyMiUzRSUwQSUyMCUyMCUyMCUyMCUyMCUyMCUyMCUyMCUyMCUyMCUzQ214R2VvbWV0cnklMjB4JTNEJTIyNDAlMjIlMjB5JTNEJTIyNDAlMjIlMjB3aWR0aCUzRCUyMjIwJTIyJTIwaGVpZ2h0JTNEJTIyMjAlMjIlMjBhcyUzRCUyMmdlb21ldHJ5JTIyJTIwJTJGJTNFJTBBJTIwJTIwJTIwJTIwJTIwJTIwJTIwJTIwJTNDJTJGbXhDZWxsJTNFJTBBJTIwJTIwJTIwJTIwJTIwJTIwJTIwJTIwJTNDbXhDZWxsJTIwaWQlM0QlMjI4JTIyJTIwdmFsdWUlM0QlMjJSJTIyJTIwc3R5bGUlM0QlMjJyb3VuZGVkJTNEMCUzQndoaXRlU3BhY2UlM0R3cmFwJTNCaHRtbCUzRDElM0JmaWxsQ29sb3IlM0Rub25lJTNCZm9udFN0eWxlJTNEMCUzQnZlcnRpY2FsQWxpZ24lM0RtaWRkbGUlM0Jyb3RhdGlvbiUzRDAlM0IlMjIlMjB2ZXJ0ZXglM0QlMjIxJTIyJTIwcGFyZW50JTNEJTIyMiUyMiUzRSUwQSUyMCUyMCUyMCUyMCUyMCUyMCUyMCUyMCUyMCUyMCUzQ214R2VvbWV0cnklMjB4JTNEJTIyNjAlMjIlMjB5JTNEJTIyNDAlMjIlMjB3aWR0aCUzRCUyMjIwJTIyJTIwaGVpZ2h0JTNEJTIyMjAlMjIlMjBhcyUzRCUyMmdlb21ldHJ5JTIyJTIwJTJGJTNFJTBBJTIwJTIwJTIwJTIwJTIwJTIwJTIwJTIwJTNDJTJGbXhDZWxsJTNFJTBBJTIwJTIwJTIwJTIwJTIwJTIwJTIwJTIwJTNDbXhDZWxsJTIwaWQlM0QlMjI5JTIyJTIwdmFsdWUlM0QlMjJTJTIyJTIwc3R5bGUlM0QlMjJyb3VuZGVkJTNEMCUzQndoaXRlU3BhY2UlM0R3cmFwJTNCaHRtbCUzRDElM0JmaWxsQ29sb3IlM0Rub25lJTNCZm9udFN0eWxlJTNEMCUzQnZlcnRpY2FsQWxpZ24lM0RtaWRkbGUlM0Jyb3RhdGlvbiUzRDAlM0IlMjIlMjB2ZXJ0ZXglM0QlMjIxJTIyJTIwcGFyZW50JTNEJTIyMiUyMiUzRSUwQSUyMCUyMCUyMCUyMCUyMCUyMCUyMCUyMCUyMCUyMCUzQ214R2VvbWV0cnklMjB4JTNEJTIyODAlMjIlMjB5JTNEJTIyNDAlMjIlMjB3aWR0aCUzRCUyMjIwJTIyJTIwaGVpZ2h0JTNEJTIyMjAlMjIlMjBhcyUzRCUyMmdlb21ldHJ5JTIyJTIwJTJGJTNFJTBBJTIwJTIwJTIwJTIwJTIwJTIwJTIwJTIwJTNDJTJGbXhDZWxsJTNFJTBBJTIwJTIwJTIwJTIwJTIwJTIwJTIwJTIwJTNDbXhDZWxsJTIwaWQlM0QlMjIxMCUyMiUyMHZhbHVlJTNEJTIyRiUyMiUyMHN0eWxlJTNEJTIycm91bmRlZCUzRDAlM0J3aGl0ZVNwYWNlJTNEd3JhcCUzQmh0bWwlM0QxJTNCZmlsbENvbG9yJTNEbm9uZSUzQmZvbnRTdHlsZSUzRDAlM0J2ZXJ0aWNhbEFsaWduJTNEbWlkZGxlJTNCcm90YXRpb24lM0QwJTNCJTIyJTIwdmVydGV4JTNEJTIyMSUyMiUyMHBhcmVudCUzRCUyMjIlMjIlM0UlMEElMjAlMjAlMjAlMjAlMjAlMjAlMjAlMjAlMjAlMjAlM0NteEdlb21ldHJ5JTIweCUzRCUyMjEwMCUyMiUyMHklM0QlMjI0MCUyMiUyMHdpZHRoJTNEJTIyMjAlMjIlMjBoZWlnaHQlM0QlMjIyMCUyMiUyMGFzJTNEJTIyZ2VvbWV0cnklMjIlMjAlMkYlM0UlMEElMjAlMjAlMjAlMjAlMjAlMjAlMjAlMjAlM0MlMkZteENlbGwlM0UlMEElMjAlMjAlMjAlMjAlMjAlMjAlMjAlMjAlM0NteENlbGwlMjBpZCUzRCUyMjExJTIyJTIwdmFsdWUlM0QlMjIlMjIlMjBzdHlsZSUzRCUyMnJvdW5kZWQlM0QwJTNCd2hpdGVTcGFjZSUzRHdyYXAlM0JodG1sJTNEMSUzQmZpbGxDb2xvciUzRCUyM2RlZGRkYSUzQmZvbnRTdHlsZSUzRDAlM0J2ZXJ0aWNhbEFsaWduJTNEbWlkZGxlJTNCcm90YXRpb24lM0QwJTNCJTIyJTIwdmVydGV4JTNEJTIyMSUyMiUyMHBhcmVudCUzRCUyMjIlMjIlM0UlMEElMjAlMjAlMjAlMjAlMjAlMjAlMjAlMjAlMjAlMjAlM0NteEdlb21ldHJ5JTIweCUzRCUyMjMwJTIyJTIweSUzRCUyMjIwJTIyJTIwd2lkdGglM0QlMjI5MCUyMiUyMGhlaWdodCUzRCUyMjIwJTIyJTIwYXMlM0QlMjJnZW9tZXRyeSUyMiUyMCUyRiUzRSUwQSUyMCUyMCUyMCUyMCUyMCUyMCUyMCUyMCUzQyUyRm14Q2VsbCUzRSUwQSUyMCUyMCUyMCUyMCUyMCUyMCUyMCUyMCUzQ214Q2VsbCUyMGlkJTNEJTIyMTIlMjIlMjB2YWx1ZSUzRCUyMlNFUSUyMiUyMHN0eWxlJTNEJTIycm91bmRlZCUzRDAlM0J3aGl0ZVNwYWNlJTNEd3JhcCUzQmh0bWwlM0QxJTNCZmlsbENvbG9yJTNEJTIzZGFlOGZjJTNCZm9udFN0eWxlJTNEMCUzQnZlcnRpY2FsQWxpZ24lM0RtaWRkbGUlM0JzdHJva2VDb2xvciUzRCUyMzAwMDAwMCUzQnJvdGF0aW9uJTNEMCUzQiUyMiUyMHZlcnRleCUzRCUyMjElMjIlMjBwYXJlbnQlM0QlMjIyJTIyJTNFJTBBJTIwJTIwJTIwJTIwJTIwJTIwJTIwJTIwJTIwJTIwJTNDbXhHZW9tZXRyeSUyMHdpZHRoJTNEJTIyMzAlMjIlMjBoZWlnaHQlM0QlMjIyMCUyMiUyMGFzJTNEJTIyZ2VvbWV0cnklMjIlMjAlMkYlM0UlMEElMjAlMjAlMjAlMjAlMjAlMjAlMjAlMjAlM0MlMkZteENlbGwlM0UlMEElMjAlMjAlMjAlMjAlMjAlMjAlM0MlMkZyb290JTNFJTBBJTIwJTIwJTIwJTIwJTNDJTJGbXhHcmFwaE1vZGVsJTNFJTBBJTIwJTIwJTNDJTJGZGlhZ3JhbSUzRSUwQSUzQyUyRm14ZmlsZSUzRSUwQWpQjocAACAASURBVHhe7V0JuE1VG/6ECpVSmpMiCsmQeZ6nKxn/IlMKzaQkyVCkjJHpFyUZUkLmKfNwDZVSypAUSqjQHPKvd9+z77/vce7Z++y1zrn3Hu/3POs5556zhu9719rv+dZa31o3k4icUYlCBIgAEchICGSylcUbklhG6jrqSgSIABA4m8R2HTpFaMIg8NqQFwQJQqw4VIhA7BFwPoMkMR/4k8R8gMYiRMAgAiQxTTBJYpoAsjgR0ESAJGYQQE4nNcFkcSLgAwGSmA/QnEXoiWkCyOJEQBMBkphBAOmJaYLJ4kTABwIkMR+g0RPTBI3FiYBBBEhimmByOqkJIIsTAU0ESGIGAeR0UhNMFicCPhAwQmIHvvtGpk4aJ3t27pDv9u2V7w98KxddfInkvupqubXwHZJw93+kQuWakjlLllRVfKl3N5k0foQPE0TubdtJ+r0yOmzZ06dOyeoVi2XV8oXyydaNcvTwj3Li+DG5NNflcuWVV0vp8lWkWu0EKVuhakQ60BOLCC5mJgLGEdAisd9+PSFDBvSUd6dOlFMnT4ZVrmCh22X4uKmSv0ChkPmiSWLLFs6RwUrPfV/vcgWwaPFS0qPvYLmzTEXXvMhAEvMEEzMRgagh4JvEzpw5Iw+3ayIfLplnKXf++RdI3YZN5ZaChZQHdo38dPSwHNz/rYBAjhw+ZOXJli27zFycaOUJFieJwbO67oYbPRt9W+FiUqla7bPy//vvvzK4/7MycczQ5O8uuOBCKaO8rZvzF5RLcl4qv/z8k+z6crts3bxe4K1BMmfOLM/2GyJtHnjMVQeSmCtEzEAEooqAbxIbP2qQDOnf01KuZJkKMvL1GZJbTcuC5e+//5IJo4fIiEF9ra/gkc1eslmyZM2aIquTxN6Zu0ZKlC6vbbizTpBXx8e6S4eHnpTsOS46q+6ffzoio4b2l2mTxgrID9L7pRFy3/2PhNWDJKbdTayACGgh4IvE4IVVLpFXfvzhoLX2tXLr15Iz52VhFenZ9UGZOf1NK8+oie9J7QaNo0pi8AAfub+Z1QY8rvFT5kmJUuVcwVq6YLZ07dxKTp78R7JmPV9mLFgnRYqWSLUcScwVUmYgAlFFwBeJYapYrsi1lmKVq9eRCdMWuCq5ddM6admoqpUP3g28HKeY9MROnz4t9SoVkX17d1tN9B8yTlrc94CrjnaGYQOfl3EjBlp/VqhSU96csZgk5hk9ZiQCsUXAF4nBA6tUPGnNqmzFajJ55jJXrf/88w8ZrsgBckeJ0tJA7VhGi8SWzJ8ljz3Qwqq+8O3F5f0lm+S8885z1dHO8Ocfv0udCoXl0A8HrI9mLd2cqjdGT8wzrMxIBKKCgC8Sw3SyWL5LBQ87yGHsW7OlWq0GWgqa9MR6PNFBZs14y9IHXhS8qUgFU19MgSGPP91HHu2WRMDBQhKLFFnmJwJmEfBFYlDhxee6yNsTRyVrUzehqdzVrJVUrFpLLrwwW8RamiSxqiVvlu8PfifZsueQj3YePWsTwYty2FGtUPR6K2vpcpVlyuwVJDEvwDEPEYgxAr5JDIGindo0ko82rU+hMkItipUsY00zy1WsLkVLlLIWyN3ESWKt2j8sN+TJ61Yk+ftmLe+3Fu8hWA8rfEM2a4cRMV8zF230XE9wxgp33CBHfvxBhXvklZVb9pDEfCPJgkQgegj4JjGLMFRc1WTljc2c9obsVtH6oQSxYXeWrSh3NW0ldRKapOql6QS7Lk/cKXny5rOaR6hE2cLXWO+r1Kgnr09NimPzIw2rF5edO7Zb8W2ffnOCJOYHRJYhAlFGQIvEnLrt3fOVbFq/WjZtWC2bVTp65MezVM91eW4ZOubtkGtUpkjMuXNatWZ9FVox1zeECdWKqUDYz61p6ad7j5PEfCPJgkQgeggYI7FgFUFqG9etlOWLPpDE9auSo+GxETBu8hwBwTjF1JqYyelkxWJ55PCh7zmdjN74Y81EQBuBqJGYU7OD+/dJn2celTXqADYEa0xLN+xIsVZmisRQv4mFfUxLEQuHnVgcCp/8/nJ6YtrDjRUQAfMI+CIx3ATxy89HJUeOi8+KvE9NRUTAN69fXnZs32ZlmbNsqxS6vVhydpMk5gyxmPTuEilfuUbEyM19f5o89Ugbq1zXHi/IQ12SjlgFC0MsIoaWBYiAUQR8kVjnNnfLiqXzrTOI274+5lmhUUNflJGD+1n5R7z+jtRrmHQsCGKSxJzBrjgyhEPn4YJdjx/7WRLXrbI2HmxpXKuUfLH9E+vP+Su3SYHbipDEPPc0MxKB2CHgi8SchDN72RYrKt6LPPdkR3lP7WRCEHeF+KtokFjwsaMBw8ZLcxWGEUrgIbZtVltwLKp1h0flWXUND3Ts80zSwe8adRpawbypCT0xLz3PPEQgegj4IrFEtWDfplktSyscqp4ya4VrQCmmnwlVi1nX8lx8SU7ZsP2g4GaJaJAY6nQeAMfh9AnTF1jHnYIFhIc70ezreuC57frqC/nnn7/DXh1k10MSi97gZM1EwAsCvkgMFbduUsMKp4Dgep2Br05M9Xwhbn7t0qmlfPbJFis/vJ32nbum0M/kdDIUMSLW66Euz0q7Tl1Cxqrh9AFOITgF4SANm9wbFkeSmJdhxjxEIHoI+CYxHAJv1bi6uo76a0s7XCRYsnQFKaw8mcvUlc8n1U2viNnau1vFjymywy4f5K6mLWXI6MlnWaQTsY/KcEsFrgVyCqL2B73YQ94YOyz5Y8R84SzlzfkKKo/wEhUce1R5Xp+rNbGVVrS/LVhDe7rXQOnwcDeSWPTGH2smAtoI+CYxtIwYqhd7dREspLtJpkyZpNm97aX3wJEpppGhvCa3ukJ9jzvNrrs+9G2wkVxPjelx5sxZZEviWqsZeGJYU0vtPCg9MT+9xTJEwBwCWiRmq7F921ZZqi4hTFy3Ql1fc1B+Ud5NjosuVqSSR65TZyAL3FpEGja+R/LmK5Cq5joR+6g0HInhexyRWvXhIlm5bIFswz8KOXJYfj1xXK68+lpLz/zqyuzmrTpYmxTI279XV/XPT8Za+nZ5pp883PW5kLqTxMwNRtZEBPwgYITE/DScEcpMU//Baf7sd+StmUtTPcROEssIPUkd4xkBkphL72JdLVyMGUksnh8P2pYRECCJafYSSUwTQBYnApoIkMQMAsj/AK4JJosTAR8IkMR8gOYsQk9ME0AWJwKaCJDEDAJIT0wTTBYnAj4QIIn5AI2emCZoLE4EDCJAEtMEk9NJTQBZnAhoIkASMwggp5OaYLI4EfCBAEnMB2icTmqCxuJEwCACJDFNMDmd1ASQxYmAJgIkMYMAcjqpCSaLEwEfCJDEfIDG6aQmaCxOBAwiQBLTBJPTSU0AWZwIaCJAEjMIIKeTmmCyOBHwgQBJzAdonE5qgsbiRMAgAq4k9thTvQ02F39VbVZXb9v/a6BM+SrxZyAtIgLpHIGD+7+VA+ofdAckk/NN0qX4FCJABIhAxkGAJJZx+oqaEgEiEAKBs0ls79e7iFQYBFq2ai2JiZusHMSKQ4UIxB6BESNfkxEjXkt9OskHM3ynkMRiP2jZIhFwIkAS0xwPJDFNAFmcCGgiQBLTBJAkpgkgixMBTQRIYpoAksQ0AWRxIqCJAElME0CSmCaALE4ENBEgiWkCSBLTBJDFiYAmAiQxTQBJYpoAsjgR0ESAJKYJIElME0AWJwKaCESFxJ56qrvMmj0nWbUxo1+TunXrRKzqFzt2yMKFi2TDho3yww8/yLFjx+Xyyy+XG/PkkTw35pGmTRpLqVJ3hq23fIXKcujQIcmdO7dsSlzvqsPp06fl0ceekCVLllp5b721oEyd+rZcdumlIcuSxFwhZQYiEFUEjJPYX3/9JaVKl5Pff/89WfE6dWrL2DGjPBvy888/y/O9+8rixUvkzJnwRzirVq0ivZ7rKTfffFPI+iMhMRBY167dZP6ChVZdBQsWkGkgsMsuS1V3kpjnbmVGIhAVBIyTGAjg8ce7pFD2ggsukC2bN8pFF13kasR3+/dLmzbt5bvvvrPyZs6cWcqVK2sRSo7sOeTAgQPyzb598umnn8m///5r5bn22mtl7gezJFeuXGfV75XEUNdTTz8jc+Z8YNVRoAAIbHLIOp2NkMRcu5QZiEBUETBOYh07PSTLl39oKV2/fj1rOggZPPgVa/oXTv78809p3KS57NqVdF6zXr260vv5XnLVVVeeVeyrr3bKwJdfkbVr11nflS1TRt5+e5JFek7xQmLw9p7p0VNmznzfKnrLLbfI9GlvuxIY8pLEojo+WTkRcEXAKIlhzapM2fJy8uRJueOOovLKyy9J3XoJlhKVKlWUtya9EVYhTCGnTp1m5bnvvlbyQr8+YfNj+gcS2bJlq5XvjTcmSNUqlSMiMRBYr169Zfo7M5IILH9+maYIDGtvXoQk5gUl5iEC0UPAKIlNm/6ORQiQPn2el7ZtWkvtOvVkz56vLQ8pceO6VMkBC/dVqtaQU6dOyZVX5pbVq1YIpqFugmll4ybNrGzNmjWVQa8MjIjE+vZ7QSZPnmKVyZ8/n7UGdsUVV7g1m/w9ScwzVMxIBKKCgFES+889LS2vCISFnUCsUTkb6Ne3j7Ru3SqkIYMGDZFx/x1vfde7dy9p17aNZ4MTGjaSI0eOyiWXXCyLFy1IMaUMN53sP2Cg8t7etNrJl+9mi8CwixmJkMQiQYt5iYB5BIyR2Pfffy+VKlezdhOrVasqEyckEdLuPXukTp361vuSJUvIe+++E9KKBgl3yZdffiU5cuSQrVsSPXlhXuBIjcScpImdzenTpkRMYGifJOalF5iHCEQPAWMkBi8KxAAZOfJVSWiQRFwQrIthsT5TpkyyZvUKue6661JYdPz4cSlRsrRFgEUKF5a5c2cbszgUiQ0b9qqMGj3GauOmm/IqAptqTWH9CEnMD2osQwTMIWCMxOrVT5CdO3dZnhTCKS688MJkLV8bNVqGDx9h/d29+1PSuVPHFBbAA4MnBsGO5OhRI41ZGExiTl3QCEI3PpgzS84//3xfbZLEfMHGQkTAGAJGSAxelr0LGWpxfe/eb6RmraSI/dtuu1UWzJ+bwoD16zdI6zbtrM86PviA9OjR3ZiBThJr375tsreYM2dOgQeo2yZJzFhXsSIi4AsBIyQ2aPBQGTfuv5YCU6dMtoJTg6V+g4aC2C7IkiULrVAGW9asWSvt2new/uzcuZN0f7qbL2NCFbJJ7LzzzksOjsUJgr59egs2BH766SfBd1gTczvCFKp+kpixrmJFRMAXAtokhnWsylWqy8GDB+Xqq66SdetWW6QQLKNHj5Whw4ZbHz/6yMPy5JP/j+r//Isv5K67kgJhozWdtPWpXaumjFLT1SxZssjSZcsVaT5sfXXDDdfLwgXzrOlwJEISiwQt5iUC5hHQJjGEVCC0IhLJow5wr1q5PLnIkSNHVJBsBevvQoVuk/nzko7+eJUDBw7Ktk8/tbLDw8M6ly22J4a/a9WsKaNHJxGYLc7D6i1aNJeXBw7w2qyVjyQWEVzMTASMI6BNYs8/30emTpsesWJzZr8vRYvenlyuWvVa8u2330r27Nnko62bIwqxGDJ0mIwZM86qCyQEMgomMayBbd60QbJmzZpC119//dVaz0OwLeT18eOkRo3qnu0hiXmGihmJQFQQ0CIxRNeXKVNefjl2zDrcPWDAi1YYRWqCtS/7fOL97dup6P6eyVl79+knU6ZMtf7Gwj4W+L1Ks+b3yMcff2xlnzdvjhQuVOgsEgt3FQ82Ftq0bW+FeOC40ZLFCzydm0QjJDGvvcR8RCA6CGiR2IcfrpAHO3a2NMPhbhzyDifwtOBxQRCXtWH92uT1s927d0u9+g2txXd4TatXfagi8C9xtRpHmnC0CYL4s7VrVqYo4+UAOAo4jx9h3WzcuKQ4MjchibkhxO+JQHQR0CIxXLlj37016c2JUrlyJVdtsYCPhXzIVHXVTbmy/9/JfOKJrjJv/gLru4YJDWTYsCFn3UrhbAAHwO9teZ9s3fqR9XG3J7vKI4885IvEcINGg4RGsk9d8wPxcusG8pHEXLucGYhAVBHwTWJ//PGHdfkhHn6ckcRZyeBrcEJp7ozsv+eeFvLSgP7J2TAtbdSosboz7KD1WYUK5dVNFn2tqPpgwTGn7s88a936CsGdYsuWLpJs2bL5IjEU+uSTbdLiP/cKyBHT40UL5511uiBYD5JYVMcnKycCrgj4JrHZ6vrpbuoaaoiXa3NsTfbvP6Buq0haOA+12I5YMqxPHT161MqDcI0SJYqrTYCikkvdsHrs+DEr3mzjxkSLbCAIi5jxzjRrZzNYvE4n7XKDhwyVsWOTYt5wRxm8xXDrfCQx1zHGDEQgqgj4JjEEp2KhHvLujOly550lPSt6d+Om8tln2638oXYDsVOIW1ZBVG4C4np1+DDrGp1QEimJ4S406IejUJDnej4rHTq0T1UNkphbD/F7IhBdBHyRGKLcy5araHlC11xzjaxbuyqstxJswoQJb8hLA1+2Pm7YMEFGvDospJWbNm2WhYsWyebNW+Twj4flhAqHgNeVO/cVUrx4camn/vkI7tgP5ylFSmJQBJ5eo7ubWJc74kzlPHUgHbe9hhKSWHQHKGsnAm4I+CIxt0rPpe9JYudSb9PW9IgASUyzV0himgCyOBHQRIAkpgkgSUwTQBYnApoIkMQ0ASSJaQLI4kRAEwGSmCaAJDFNAFmcCGgiQBLTBJAkpgkgixMBTQRIYpoAksQ0AWRxIqCJAElME0CSmCaALE4ENBEgiWkCSBLTBJDFiYAmAiQxTQBJYpoAsjgR0ESAJKYJIElME0AWJwKaCJDENAEkiWkCyOJEQBMBkpgmgCQxTQBZnAhoIkAS0wSQJKYJIIsTAU0ESGKaAJLENAFkcSKgiQBJTBNAkpgmgCxOBDQRcCWxsmXLaDaRdsWPqTv7f/vtd0uB66+/LiqK7NjxpZw4ccKq+4knHotKG6yUCBCB1BHA5amJiZvsDMn/MxJvzhA4IkAEiEAGQ4AklsE6jOoSASKQEoGQJJb6v/RO//DhP+lWDahJO9K+v9gfad8HTg3ipT/6KKP6Bj/nzukkH/60H3jxMthoR9qPJZJY+uoDV2340LhCFNMM7I+Ywu3aWLz0Bz0x165O+wzxMthoR9qPJXpi6asPXLXhQ+MKUUwzsD9iCrdrY/HSH/TEXLs67TPEy2CjHWk/luiJpa8+cNWGD40rRDHNwP6IKdyujcVLf9ATc+3qtM8QL4ONdqT9WKInlr76wFUbPjSuEMU0A/sjpnC7NhYv/RE1T6ykgnBrAMZR6tXrwUJnuXGq3EOuXZF6hmh2EuLnvlHpxkDzp9UrDmj+qKFvakVN2VFHNbDYRb8z6vsDKu1SabtKQ1Q6aMgmU3b8qfS50INOv6o8XwfSdPX6vocyXrKYssPZ1sWBsV5aveYLJIypHwL6z1Svs1VKOqhrRkzaMVyp1MWnWtdrjjGSmE/gK6pya4PKPq7+fs1nfeGKmRpsXkgsWA+coO+t0jADdpmywyuJBau8WX3QVCWQtI6YssPWoZt686xKl7so9ZP6voNKH+go7yhr0g6SmAPYjOKJjVU6dw4aTBvV3+UNDTBnNaYGm5PEUOeSELpmU5/BE6ih0jWO7xuo9ws1bTNlh01i8Hrx8ISSzOrDK1UqpFItR4YPA3/D4/QrpuxA+yAweLu2LFNvMI6+VekileDp11SpqCPP/er9m36Vd5QzaYeTxDCD2heBfmNUXnjNfoWemA/ksqoycPPxy4mpFgacTV43q/eYZpoUU4PNSWL9lYLPh1Eyu/oO3lenQB54L/lV+lvDMFN22CT2udLldg/6VFJ5QA4XBPI2U686U0tTdmDMrFEJhHtYpfoqfZSKPY3U59NUQr/AOwap7fVge7gspuxAG04SwyxlvaZukRQniUWCViBvgnqdF3g/SL3uV8meRvZU7wf6qDMWgy0SEoM+WVT6WCWbKIqr99s0bDP10ERKYlC5n0qYFkPQP+gnv2LKjqlKgZYBJeD5rnBRqLX6fnIgD8Ybli90xJQd0IEk5uiJjDCdxCLxPQGd8Yt4VCV4KuephMVwp+uvM8jssqYGW6QkhvYHq/RUQJFW6hXegF8xZYcfEgNJLA8ojh+gu/waocqZsmOHqus2lX5T6VKVsJAfTjADwMI+NjW8eqHh6jNlB9ogiTmQTu8khnUKrMXArf9UpWIB3Z0Dooj67AuNhyS4qKnB5ofEnlHKvBxQCGQ2VMMuU3b4ITH00ycB3bEwfnc6sGO30sGeomN38qQHnbqrPFirxCI/lgR0xFR/kMSCeiG9k9h9St+3Azo/rV7tRVmEgmCBEjJApV46oyuorKnB5ofE4HndG9CnoXqdr2GXKTv8kFhzpfe7Ad1BxLZ36cccU3Zgo6ReQIFX1Ct2KHU2HCK1xZQdJLEMRmKLlL51VfpXpRtU+j6g/1XqFYv8WKTFgit2+EyJqcEWKYndqQzYoBKmMZC8KmETw6+YsiNSEsM0HwvoFQKK63rKpuxoovRxbjBsUX//VyVMd7HQH20xZQf05HTS0Vvp2RPDlj2ICgveWF9xbt3DBGzfVw/YUla9Jv/3As3RaGqweSExrLfcpBLWjOAZ5Azojt292unEDi8kBuK6WiWEWMAOu18wPcZmjI6Y6g/ogAX6R4OUgTf2mUpY6EdbIODjOgqnUtakHU4SG63a87JDj4Bqe4NMxzzuTkaAHk4djAzkb6te7Z0iuwqEIyBGBjJCJb8RzMEqmRpsfoJdocs+leDF2F5nBJClyGrKDj/BrkeUJk+qNMWv8o5ypuywq8T6HIgMRBvqJmUs+GOX+D2V3lLJlJdm0g4/wa44hYBpvq6QxCJAEEGI8LD+UAm/8sEBernVZ4gfw5TykEo4hoRpp66YGmyRkhh0x/QG4QjHdI1Q5U3Z4YfE4NngRwheja6YsiNYD4ypqo5UMISiWPxHfzgDZP3aY9IOkpijF9LrdBJBrDiHB8FiN8INQgmmXYiwhuAVU0xdMTXYvETsQ9e/VNqpEh58Xe/LabspO7xE7KNdBCMjxg1rmBB4NNicwLqmjpiyw00H7EJWCegMvbGDaQs2Anq4VeDyvUk7uCbmADu9khii21+IcNBMVPkfiLBMqOymBpuXNTED6qZahSk7vKyJOZVwBicjNquwppGm7IhEDYT2YNpk76qeUu/vUAn2+BWTdsQ9iWGhL3jxMjXgsSOGXRpIerrF4kulz60RjhZMwbBr+U+E5YKzmxps5yqJAc+5KsGbgejemmCiP/BjjV1SCNa6sEThRXAjzCOBjFjjS+3sqJe6TNhhtxOXJFZAWYcpCQRXiGA72Ys0VplmBTLqusymOqmE0sc+05ao3r/qYkhX9X2ZQB4s2ureOmDKjnOZxJyedCnVJ/Y1UV7GZHAeE/0BArIDhyPRp7IqtzqgEOISbUJLKzvimsRyKOvgiSAcYZ9K2Lb3Ii+pTNgSh+CWCCws+xUTgw1tY7Bh0EHaqzTJRSFMIV8P5JmhXu0jSmltx7lMYrjCZkKgAxAqgrVLv2JiXOFA95yAArjJwutVR85g676qHM6E+hUTdthtx6UnBuOccVMPOgZRaqAjQBQeD2KTsDN2o0o6dz+Z6CTEG+GA97Uq4QYHTA/dYnZyqTw4mgQCxzQBZXA+zq+YsANtn8sk5vxhwawAswO/YqI/LlONfxMY6/ixx9TS7fJJjEVsStjxeuXUe8wM/IoJO+y245bEEPdi785haxjTLCx2Y/crWBA4isA/e1sZnkxHv70TKGeik5w2RDIttiP7oUp6OThNEksaGG1VCo7xi2SomRhXaA8L9X0DDeMSAdxKgcsFQgkOiCNIF84ARPcQO+owZQfqilsSg3E4R+i89gQeyiqV9qkEMsM0E7c+2AepUQYL+whP0L2K10QngXRxCR2khUpYhPUi7VSmNwMZF6hX7JD5FRN2oO1zmcSca60vKizsa3n89Imp/sBxLgR8Om/UwC0ouIsL8YbYgcQpkTwqIUwEF1ZCsMmEeMX08HzY+MU1icFIPPwgM5zYDyeYcmH9CYF8OtMvuw3dwYZL9EC6mN5CHwwobO97Efxyouz5KsELtW8e8FI2OI+uHXZ95zKJ4S40RL1DcNwF4QmhZgRe+sdUf6AtjA+E7uB0h31pYzgdcCU6PElMRXXFpB1xT2IAG7867VTCbZYgs1tUwnU2CCDFlSS4HwkhFaaOVKBN3U5yHtDFcRVcSheJwOW3PTAcSRofSWFHXl077KrOZRLDcR78qOBUBQQPnb1ZE2m3mOoPZ7tY/8WNs/C4sDaMH8wzKu1TCYfu96iEw+LB/9chUt2d+U3acU6QmA7Yfsua7CS/OpgoRztMoGiuDvaHOSxN1ORcW0w+e4o3+BWAhDqQaqLhWNTBwRYLlL23wf7wjlUscsZLf5DEYjFaNNuIl8FGOzQHguHi8dIfJDHDAyMa1cXLYKMd0Rgd/uuMl/4gifkfAzErGS+DjXbEbMh4aihe+oMk5qm70zZTvAw22pG24yi49XjpD5JY+hpXIbWJl8FGO9LXYIuX/iCJpa9xRRJjf8QMAZJYzKD231C8dBLt8D8GolGS/RENVP3XSU/MP3YxK8mHJmZQe2qI/eEJpphlIonFDGr/DfGh8Y9dNEqyP6KBqv86SWL+sYtZST40MYPaU0PsD08wxSwTSSxmUPtviA+Nf+yiUZL9EQ1U/ddJEvOPXcxK8qGJGdSeGmJ/eIIpZplIYjGD2n9DfGj8YxeNkuyPaKDqv06SmH/sYlaSD03MoPbUEPvDE0wxy+RKYn1jpor5htqpKvMGqqUd5vGNtEb2R6SIRTd/vPRHVQUTEiTkfWLRhZG1EwEiQATMIUASM4clayICRCANEEhBYmnQPpskAkSACJhBICNfSW0GAdZCBIhAhkaAJJahu4/KTpjAHgAAAAlJREFUEwEi8D9uF3Rutd8U6gAAAABJRU5ErkJggg==;rotation=-5;" vertex="1" parent="TnRPiVpnpAn_v4_r0oWy-92">
          <mxGeometry x="121.94" y="5.030644437146634" width="118.06" height="60" as="geometry" />
        </mxCell>
        <mxCell id="TnRPiVpnpAn_v4_r0oWy-108" value="5000" style="rounded=0;whiteSpace=wrap;html=1;strokeColor=none;fillColor=none;rotation=355;" vertex="1" parent="TnRPiVpnpAn_v4_r0oWy-92">
          <mxGeometry x="149.00000000000006" y="8.030644437146634" width="88" height="12.37" as="geometry" />
        </mxCell>
        <mxCell id="TnRPiVpnpAn_v4_r0oWy-109" value="8001" style="rounded=0;whiteSpace=wrap;html=1;strokeColor=none;fillColor=none;rotation=355;" vertex="1" parent="TnRPiVpnpAn_v4_r0oWy-92">
          <mxGeometry x="151.00000000000006" y="26.840644437146636" width="88" height="12.37" as="geometry" />
        </mxCell>
        <mxCell id="TnRPiVpnpAn_v4_r0oWy-93" value="" style="group" vertex="1" connectable="0" parent="1">
          <mxGeometry x="110" y="230.99935556285334" width="301" height="70.06128887429327" as="geometry" />
        </mxCell>
        <mxCell id="TnRPiVpnpAn_v4_r0oWy-94" style="rounded=0;orthogonalLoop=1;jettySize=auto;html=1;startArrow=cross;startFill=0;endArrow=none;endFill=0;" edge="1" parent="TnRPiVpnpAn_v4_r0oWy-93">
          <mxGeometry relative="1" as="geometry">
            <mxPoint y="25.030644437146634" as="targetPoint" />
            <mxPoint x="240" y="50.00064443714666" as="sourcePoint" />
          </mxGeometry>
        </mxCell>
        <mxCell id="TnRPiVpnpAn_v4_r0oWy-95" value="" style="shape=image;imageAspect=0;aspect=fixed;verticalLabelPosition=bottom;verticalAlign=top;image=data:image/png,iVBORw0KGgoAAAANSUhEUgAAATEAAACbCAYAAAAKlaxUAAAWbXRFWHRteGZpbGUAJTNDbXhmaWxlJTIwaG9zdCUzRCUyMmFwcC5kaWFncmFtcy5uZXQlMjIlMjBtb2RpZmllZCUzRCUyMjIwMjQtMDQtMDNUMTUlM0E1OCUzQTU3Ljg2M1olMjIlMjBhZ2VudCUzRCUyMk1vemlsbGElMkY1LjAlMjAoWDExJTNCJTIwVWJ1bnR1JTNCJTIwTGludXglMjB4ODZfNjQlM0IlMjBydiUzQTEyNC4wKSUyMEdlY2tvJTJGMjAxMDAxMDElMjBGaXJlZm94JTJGMTI0LjAlMjIlMjB2ZXJzaW9uJTNEJTIyMjQuMi4yJTIyJTIwZXRhZyUzRCUyMlZYQW9zUXpsM1FFQ3hfeHlBZ2doJTIyJTIwdHlwZSUzRCUyMmRldmljZSUyMiUyMHNjYWxlJTNEJTIyMi41JTIyJTIwYm9yZGVyJTNEJTIyMCUyMiUzRSUwQSUyMCUyMCUzQ2RpYWdyYW0lMjBuYW1lJTNEJTIyUCVDMyVBMWdpbmEtMSUyMiUyMGlkJTNEJTIyNmZJX2tXOFRrZ3lQZEhXV3ozakElMjIlM0UlMEElMjAlMjAlMjAlMjAlM0NteEdyYXBoTW9kZWwlMjBkeCUzRCUyMjgzNCUyMiUyMGR5JTNEJTIyNDkyJTIyJTIwZ3JpZCUzRCUyMjElMjIlMjBncmlkU2l6ZSUzRCUyMjEwJTIyJTIwZ3VpZGVzJTNEJTIyMSUyMiUyMHRvb2x0aXBzJTNEJTIyMSUyMiUyMGNvbm5lY3QlM0QlMjIxJTIyJTIwYXJyb3dzJTNEJTIyMSUyMiUyMGZvbGQlM0QlMjIxJTIyJTIwcGFnZSUzRCUyMjElMjIlMjBwYWdlU2NhbGUlM0QlMjIxJTIyJTIwcGFnZVdpZHRoJTNEJTIyODI3JTIyJTIwcGFnZUhlaWdodCUzRCUyMjExNjklMjIlMjBtYXRoJTNEJTIyMCUyMiUyMHNoYWRvdyUzRCUyMjAlMjIlM0UlMEElMjAlMjAlMjAlMjAlMjAlMjAlM0Nyb290JTNFJTBBJTIwJTIwJTIwJTIwJTIwJTIwJTIwJTIwJTNDbXhDZWxsJTIwaWQlM0QlMjIwJTIyJTIwJTJGJTNFJTBBJTIwJTIwJTIwJTIwJTIwJTIwJTIwJTIwJTNDbXhDZWxsJTIwaWQlM0QlMjIxJTIyJTIwcGFyZW50JTNEJTIyMCUyMiUyMCUyRiUzRSUwQSUyMCUyMCUyMCUyMCUyMCUyMCUyMCUyMCUzQ214Q2VsbCUyMGlkJTNEJTIyMiUyMiUyMHZhbHVlJTNEJTIyJTIyJTIwc3R5bGUlM0QlMjJncm91cCUyMiUyMHZlcnRleCUzRCUyMjElMjIlMjBjb25uZWN0YWJsZSUzRCUyMjAlMjIlMjBwYXJlbnQlM0QlMjIxJTIyJTNFJTBBJTIwJTIwJTIwJTIwJTIwJTIwJTIwJTIwJTIwJTIwJTNDbXhHZW9tZXRyeSUyMHglM0QlMjIxNzAlMjIlMjB5JTNEJTIyMTIwJTIyJTIwd2lkdGglM0QlMjIxMjAlMjIlMjBoZWlnaHQlM0QlMjI2MCUyMiUyMGFzJTNEJTIyZ2VvbWV0cnklMjIlMjAlMkYlM0UlMEElMjAlMjAlMjAlMjAlMjAlMjAlMjAlMjAlM0MlMkZteENlbGwlM0UlMEElMjAlMjAlMjAlMjAlMjAlMjAlMjAlMjAlM0NteENlbGwlMjBpZCUzRCUyMjMlMjIlMjB2YWx1ZSUzRCUyMiUyMiUyMHN0eWxlJTNEJTIycm91bmRlZCUzRDAlM0J3aGl0ZVNwYWNlJTNEd3JhcCUzQmh0bWwlM0QxJTNCZmlsbENvbG9yJTNEJTIzZGFlOGZjJTNCZm9udFN0eWxlJTNEMCUzQnZlcnRpY2FsQWxpZ24lM0RtaWRkbGUlM0JzdHJva2VDb2xvciUzRCUyMzAwMDAwMCUzQnJvdGF0aW9uJTNEMCUzQiUyMiUyMHZlcnRleCUzRCUyMjElMjIlMjBwYXJlbnQlM0QlMjIyJTIyJTNFJTBBJTIwJTIwJTIwJTIwJTIwJTIwJTIwJTIwJTIwJTIwJTNDbXhHZW9tZXRyeSUyMHglM0QlMjIzMCUyMiUyMHdpZHRoJTNEJTIyOTAlMjIlMjBoZWlnaHQlM0QlMjIyMCUyMiUyMGFzJTNEJTIyZ2VvbWV0cnklMjIlMjAlMkYlM0UlMEElMjAlMjAlMjAlMjAlMjAlMjAlMjAlMjAlM0MlMkZteENlbGwlM0UlMEElMjAlMjAlMjAlMjAlMjAlMjAlMjAlMjAlM0NteENlbGwlMjBpZCUzRCUyMjQlMjIlMjB2YWx1ZSUzRCUyMkFDSyUyMiUyMHN0eWxlJTNEJTIycm91bmRlZCUzRDAlM0J3aGl0ZVNwYWNlJTNEd3JhcCUzQmh0bWwlM0QxJTNCZmlsbENvbG9yJTNEJTIzZGVkZGRhJTNCZm9udFN0eWxlJTNEMCUzQnZlcnRpY2FsQWxpZ24lM0RtaWRkbGUlM0Jyb3RhdGlvbiUzRDAlM0IlMjIlMjB2ZXJ0ZXglM0QlMjIxJTIyJTIwcGFyZW50JTNEJTIyMiUyMiUzRSUwQSUyMCUyMCUyMCUyMCUyMCUyMCUyMCUyMCUyMCUyMCUzQ214R2VvbWV0cnklMjB5JTNEJTIyMjAlMjIlMjB3aWR0aCUzRCUyMjMwJTIyJTIwaGVpZ2h0JTNEJTIyMjAlMjIlMjBhcyUzRCUyMmdlb21ldHJ5JTIyJTIwJTJGJTNFJTBBJTIwJTIwJTIwJTIwJTIwJTIwJTIwJTIwJTNDJTJGbXhDZWxsJTNFJTBBJTIwJTIwJTIwJTIwJTIwJTIwJTIwJTIwJTNDbXhDZWxsJTIwaWQlM0QlMjI1JTIyJTIwdmFsdWUlM0QlMjJVJTIyJTIwc3R5bGUlM0QlMjJyb3VuZGVkJTNEMCUzQndoaXRlU3BhY2UlM0R3cmFwJTNCaHRtbCUzRDElM0JmaWxsQ29sb3IlM0Rub25lJTNCZm9udFN0eWxlJTNEMCUzQnZlcnRpY2FsQWxpZ24lM0RtaWRkbGUlM0Jyb3RhdGlvbiUzRDAlM0IlMjIlMjB2ZXJ0ZXglM0QlMjIxJTIyJTIwcGFyZW50JTNEJTIyMiUyMiUzRSUwQSUyMCUyMCUyMCUyMCUyMCUyMCUyMCUyMCUyMCUyMCUzQ214R2VvbWV0cnklMjB5JTNEJTIyNDAlMjIlMjB3aWR0aCUzRCUyMjIwJTIyJTIwaGVpZ2h0JTNEJTIyMjAlMjIlMjBhcyUzRCUyMmdlb21ldHJ5JTIyJTIwJTJGJTNFJTBBJTIwJTIwJTIwJTIwJTIwJTIwJTIwJTIwJTNDJTJGbXhDZWxsJTNFJTBBJTIwJTIwJTIwJTIwJTIwJTIwJTIwJTIwJTNDbXhDZWxsJTIwaWQlM0QlMjI2JTIyJTIwdmFsdWUlM0QlMjJBJTIyJTIwc3R5bGUlM0QlMjJyb3VuZGVkJTNEMCUzQndoaXRlU3BhY2UlM0R3cmFwJTNCaHRtbCUzRDElM0JmaWxsQ29sb3IlM0Rub25lJTNCZm9udFN0eWxlJTNEMCUzQnZlcnRpY2FsQWxpZ24lM0RtaWRkbGUlM0Jyb3RhdGlvbiUzRDAlM0IlMjIlMjB2ZXJ0ZXglM0QlMjIxJTIyJTIwcGFyZW50JTNEJTIyMiUyMiUzRSUwQSUyMCUyMCUyMCUyMCUyMCUyMCUyMCUyMCUyMCUyMCUzQ214R2VvbWV0cnklMjB4JTNEJTIyMjAlMjIlMjB5JTNEJTIyNDAlMjIlMjB3aWR0aCUzRCUyMjIwJTIyJTIwaGVpZ2h0JTNEJTIyMjAlMjIlMjBhcyUzRCUyMmdlb21ldHJ5JTIyJTIwJTJGJTNFJTBBJTIwJTIwJTIwJTIwJTIwJTIwJTIwJTIwJTNDJTJGbXhDZWxsJTNFJTBBJTIwJTIwJTIwJTIwJTIwJTIwJTIwJTIwJTNDbXhDZWxsJTIwaWQlM0QlMjI3JTIyJTIwdmFsdWUlM0QlMjJQJTIyJTIwc3R5bGUlM0QlMjJyb3VuZGVkJTNEMCUzQndoaXRlU3BhY2UlM0R3cmFwJTNCaHRtbCUzRDElM0JmaWxsQ29sb3IlM0Rub25lJTNCZm9udFN0eWxlJTNEMCUzQnZlcnRpY2FsQWxpZ24lM0RtaWRkbGUlM0Jyb3RhdGlvbiUzRDAlM0IlMjIlMjB2ZXJ0ZXglM0QlMjIxJTIyJTIwcGFyZW50JTNEJTIyMiUyMiUzRSUwQSUyMCUyMCUyMCUyMCUyMCUyMCUyMCUyMCUyMCUyMCUzQ214R2VvbWV0cnklMjB4JTNEJTIyNDAlMjIlMjB5JTNEJTIyNDAlMjIlMjB3aWR0aCUzRCUyMjIwJTIyJTIwaGVpZ2h0JTNEJTIyMjAlMjIlMjBhcyUzRCUyMmdlb21ldHJ5JTIyJTIwJTJGJTNFJTBBJTIwJTIwJTIwJTIwJTIwJTIwJTIwJTIwJTNDJTJGbXhDZWxsJTNFJTBBJTIwJTIwJTIwJTIwJTIwJTIwJTIwJTIwJTNDbXhDZWxsJTIwaWQlM0QlMjI4JTIyJTIwdmFsdWUlM0QlMjJSJTIyJTIwc3R5bGUlM0QlMjJyb3VuZGVkJTNEMCUzQndoaXRlU3BhY2UlM0R3cmFwJTNCaHRtbCUzRDElM0JmaWxsQ29sb3IlM0Rub25lJTNCZm9udFN0eWxlJTNEMCUzQnZlcnRpY2FsQWxpZ24lM0RtaWRkbGUlM0Jyb3RhdGlvbiUzRDAlM0IlMjIlMjB2ZXJ0ZXglM0QlMjIxJTIyJTIwcGFyZW50JTNEJTIyMiUyMiUzRSUwQSUyMCUyMCUyMCUyMCUyMCUyMCUyMCUyMCUyMCUyMCUzQ214R2VvbWV0cnklMjB4JTNEJTIyNjAlMjIlMjB5JTNEJTIyNDAlMjIlMjB3aWR0aCUzRCUyMjIwJTIyJTIwaGVpZ2h0JTNEJTIyMjAlMjIlMjBhcyUzRCUyMmdlb21ldHJ5JTIyJTIwJTJGJTNFJTBBJTIwJTIwJTIwJTIwJTIwJTIwJTIwJTIwJTNDJTJGbXhDZWxsJTNFJTBBJTIwJTIwJTIwJTIwJTIwJTIwJTIwJTIwJTNDbXhDZWxsJTIwaWQlM0QlMjI5JTIyJTIwdmFsdWUlM0QlMjJTJTIyJTIwc3R5bGUlM0QlMjJyb3VuZGVkJTNEMCUzQndoaXRlU3BhY2UlM0R3cmFwJTNCaHRtbCUzRDElM0JmaWxsQ29sb3IlM0Rub25lJTNCZm9udFN0eWxlJTNEMCUzQnZlcnRpY2FsQWxpZ24lM0RtaWRkbGUlM0Jyb3RhdGlvbiUzRDAlM0IlMjIlMjB2ZXJ0ZXglM0QlMjIxJTIyJTIwcGFyZW50JTNEJTIyMiUyMiUzRSUwQSUyMCUyMCUyMCUyMCUyMCUyMCUyMCUyMCUyMCUyMCUzQ214R2VvbWV0cnklMjB4JTNEJTIyODAlMjIlMjB5JTNEJTIyNDAlMjIlMjB3aWR0aCUzRCUyMjIwJTIyJTIwaGVpZ2h0JTNEJTIyMjAlMjIlMjBhcyUzRCUyMmdlb21ldHJ5JTIyJTIwJTJGJTNFJTBBJTIwJTIwJTIwJTIwJTIwJTIwJTIwJTIwJTNDJTJGbXhDZWxsJTNFJTBBJTIwJTIwJTIwJTIwJTIwJTIwJTIwJTIwJTNDbXhDZWxsJTIwaWQlM0QlMjIxMCUyMiUyMHZhbHVlJTNEJTIyRiUyMiUyMHN0eWxlJTNEJTIycm91bmRlZCUzRDAlM0J3aGl0ZVNwYWNlJTNEd3JhcCUzQmh0bWwlM0QxJTNCZmlsbENvbG9yJTNEbm9uZSUzQmZvbnRTdHlsZSUzRDAlM0J2ZXJ0aWNhbEFsaWduJTNEbWlkZGxlJTNCcm90YXRpb24lM0QwJTNCJTIyJTIwdmVydGV4JTNEJTIyMSUyMiUyMHBhcmVudCUzRCUyMjIlMjIlM0UlMEElMjAlMjAlMjAlMjAlMjAlMjAlMjAlMjAlMjAlMjAlM0NteEdlb21ldHJ5JTIweCUzRCUyMjEwMCUyMiUyMHklM0QlMjI0MCUyMiUyMHdpZHRoJTNEJTIyMjAlMjIlMjBoZWlnaHQlM0QlMjIyMCUyMiUyMGFzJTNEJTIyZ2VvbWV0cnklMjIlMjAlMkYlM0UlMEElMjAlMjAlMjAlMjAlMjAlMjAlMjAlMjAlM0MlMkZteENlbGwlM0UlMEElMjAlMjAlMjAlMjAlMjAlMjAlMjAlMjAlM0NteENlbGwlMjBpZCUzRCUyMjExJTIyJTIwdmFsdWUlM0QlMjIlMjIlMjBzdHlsZSUzRCUyMnJvdW5kZWQlM0QwJTNCd2hpdGVTcGFjZSUzRHdyYXAlM0JodG1sJTNEMSUzQmZpbGxDb2xvciUzRCUyM2RlZGRkYSUzQmZvbnRTdHlsZSUzRDAlM0J2ZXJ0aWNhbEFsaWduJTNEbWlkZGxlJTNCcm90YXRpb24lM0QwJTNCJTIyJTIwdmVydGV4JTNEJTIyMSUyMiUyMHBhcmVudCUzRCUyMjIlMjIlM0UlMEElMjAlMjAlMjAlMjAlMjAlMjAlMjAlMjAlMjAlMjAlM0NteEdlb21ldHJ5JTIweCUzRCUyMjMwJTIyJTIweSUzRCUyMjIwJTIyJTIwd2lkdGglM0QlMjI5MCUyMiUyMGhlaWdodCUzRCUyMjIwJTIyJTIwYXMlM0QlMjJnZW9tZXRyeSUyMiUyMCUyRiUzRSUwQSUyMCUyMCUyMCUyMCUyMCUyMCUyMCUyMCUzQyUyRm14Q2VsbCUzRSUwQSUyMCUyMCUyMCUyMCUyMCUyMCUyMCUyMCUzQ214Q2VsbCUyMGlkJTNEJTIyMTIlMjIlMjB2YWx1ZSUzRCUyMlNFUSUyMiUyMHN0eWxlJTNEJTIycm91bmRlZCUzRDAlM0J3aGl0ZVNwYWNlJTNEd3JhcCUzQmh0bWwlM0QxJTNCZmlsbENvbG9yJTNEJTIzZGFlOGZjJTNCZm9udFN0eWxlJTNEMCUzQnZlcnRpY2FsQWxpZ24lM0RtaWRkbGUlM0JzdHJva2VDb2xvciUzRCUyMzAwMDAwMCUzQnJvdGF0aW9uJTNEMCUzQiUyMiUyMHZlcnRleCUzRCUyMjElMjIlMjBwYXJlbnQlM0QlMjIyJTIyJTNFJTBBJTIwJTIwJTIwJTIwJTIwJTIwJTIwJTIwJTIwJTIwJTNDbXhHZW9tZXRyeSUyMHdpZHRoJTNEJTIyMzAlMjIlMjBoZWlnaHQlM0QlMjIyMCUyMiUyMGFzJTNEJTIyZ2VvbWV0cnklMjIlMjAlMkYlM0UlMEElMjAlMjAlMjAlMjAlMjAlMjAlMjAlMjAlM0MlMkZteENlbGwlM0UlMEElMjAlMjAlMjAlMjAlMjAlMjAlM0MlMkZyb290JTNFJTBBJTIwJTIwJTIwJTIwJTNDJTJGbXhHcmFwaE1vZGVsJTNFJTBBJTIwJTIwJTNDJTJGZGlhZ3JhbSUzRSUwQSUzQyUyRm14ZmlsZSUzRSUwQWpQjocAACAASURBVHhe7V0JuE1VG/6ECpVSmpMiCsmQeZ6nKxn/IlMKzaQkyVCkjJHpFyUZUkLmKfNwDZVSypAUSqjQHPKvd9+z77/vce7Z++y1zrn3Hu/3POs5556zhu9719rv+dZa31o3k4icUYlCBIgAEchICGSylcUbklhG6jrqSgSIABA4m8R2HTpFaMIg8NqQFwQJQqw4VIhA7BFwPoMkMR/4k8R8gMYiRMAgAiQxTTBJYpoAsjgR0ESAJGYQQE4nNcFkcSLgAwGSmA/QnEXoiWkCyOJEQBMBkphBAOmJaYLJ4kTABwIkMR+g0RPTBI3FiYBBBEhimmByOqkJIIsTAU0ESGIGAeR0UhNMFicCPhAwQmIHvvtGpk4aJ3t27pDv9u2V7w98KxddfInkvupqubXwHZJw93+kQuWakjlLllRVfKl3N5k0foQPE0TubdtJ+r0yOmzZ06dOyeoVi2XV8oXyydaNcvTwj3Li+DG5NNflcuWVV0vp8lWkWu0EKVuhakQ60BOLCC5mJgLGEdAisd9+PSFDBvSUd6dOlFMnT4ZVrmCh22X4uKmSv0ChkPmiSWLLFs6RwUrPfV/vcgWwaPFS0qPvYLmzTEXXvMhAEvMEEzMRgagh4JvEzpw5Iw+3ayIfLplnKXf++RdI3YZN5ZaChZQHdo38dPSwHNz/rYBAjhw+ZOXJli27zFycaOUJFieJwbO67oYbPRt9W+FiUqla7bPy//vvvzK4/7MycczQ5O8uuOBCKaO8rZvzF5RLcl4qv/z8k+z6crts3bxe4K1BMmfOLM/2GyJtHnjMVQeSmCtEzEAEooqAbxIbP2qQDOnf01KuZJkKMvL1GZJbTcuC5e+//5IJo4fIiEF9ra/gkc1eslmyZM2aIquTxN6Zu0ZKlC6vbbizTpBXx8e6S4eHnpTsOS46q+6ffzoio4b2l2mTxgrID9L7pRFy3/2PhNWDJKbdTayACGgh4IvE4IVVLpFXfvzhoLX2tXLr15Iz52VhFenZ9UGZOf1NK8+oie9J7QaNo0pi8AAfub+Z1QY8rvFT5kmJUuVcwVq6YLZ07dxKTp78R7JmPV9mLFgnRYqWSLUcScwVUmYgAlFFwBeJYapYrsi1lmKVq9eRCdMWuCq5ddM6admoqpUP3g28HKeY9MROnz4t9SoVkX17d1tN9B8yTlrc94CrjnaGYQOfl3EjBlp/VqhSU96csZgk5hk9ZiQCsUXAF4nBA6tUPGnNqmzFajJ55jJXrf/88w8ZrsgBckeJ0tJA7VhGi8SWzJ8ljz3Qwqq+8O3F5f0lm+S8885z1dHO8Ocfv0udCoXl0A8HrI9mLd2cqjdGT8wzrMxIBKKCgC8Sw3SyWL5LBQ87yGHsW7OlWq0GWgqa9MR6PNFBZs14y9IHXhS8qUgFU19MgSGPP91HHu2WRMDBQhKLFFnmJwJmEfBFYlDhxee6yNsTRyVrUzehqdzVrJVUrFpLLrwwW8RamiSxqiVvlu8PfifZsueQj3YePWsTwYty2FGtUPR6K2vpcpVlyuwVJDEvwDEPEYgxAr5JDIGindo0ko82rU+hMkItipUsY00zy1WsLkVLlLIWyN3ESWKt2j8sN+TJ61Yk+ftmLe+3Fu8hWA8rfEM2a4cRMV8zF230XE9wxgp33CBHfvxBhXvklZVb9pDEfCPJgkQgegj4JjGLMFRc1WTljc2c9obsVtH6oQSxYXeWrSh3NW0ldRKapOql6QS7Lk/cKXny5rOaR6hE2cLXWO+r1Kgnr09NimPzIw2rF5edO7Zb8W2ffnOCJOYHRJYhAlFGQIvEnLrt3fOVbFq/WjZtWC2bVTp65MezVM91eW4ZOubtkGtUpkjMuXNatWZ9FVox1zeECdWKqUDYz61p6ad7j5PEfCPJgkQgeggYI7FgFUFqG9etlOWLPpDE9auSo+GxETBu8hwBwTjF1JqYyelkxWJ55PCh7zmdjN74Y81EQBuBqJGYU7OD+/dJn2celTXqADYEa0xLN+xIsVZmisRQv4mFfUxLEQuHnVgcCp/8/nJ6YtrDjRUQAfMI+CIx3ATxy89HJUeOi8+KvE9NRUTAN69fXnZs32ZlmbNsqxS6vVhydpMk5gyxmPTuEilfuUbEyM19f5o89Ugbq1zXHi/IQ12SjlgFC0MsIoaWBYiAUQR8kVjnNnfLiqXzrTOI274+5lmhUUNflJGD+1n5R7z+jtRrmHQsCGKSxJzBrjgyhEPn4YJdjx/7WRLXrbI2HmxpXKuUfLH9E+vP+Su3SYHbipDEPPc0MxKB2CHgi8SchDN72RYrKt6LPPdkR3lP7WRCEHeF+KtokFjwsaMBw8ZLcxWGEUrgIbZtVltwLKp1h0flWXUND3Ts80zSwe8adRpawbypCT0xLz3PPEQgegj4IrFEtWDfplktSyscqp4ya4VrQCmmnwlVi1nX8lx8SU7ZsP2g4GaJaJAY6nQeAMfh9AnTF1jHnYIFhIc70ezreuC57frqC/nnn7/DXh1k10MSi97gZM1EwAsCvkgMFbduUsMKp4Dgep2Br05M9Xwhbn7t0qmlfPbJFis/vJ32nbum0M/kdDIUMSLW66Euz0q7Tl1Cxqrh9AFOITgF4SANm9wbFkeSmJdhxjxEIHoI+CYxHAJv1bi6uo76a0s7XCRYsnQFKaw8mcvUlc8n1U2viNnau1vFjymywy4f5K6mLWXI6MlnWaQTsY/KcEsFrgVyCqL2B73YQ94YOyz5Y8R84SzlzfkKKo/wEhUce1R5Xp+rNbGVVrS/LVhDe7rXQOnwcDeSWPTGH2smAtoI+CYxtIwYqhd7dREspLtJpkyZpNm97aX3wJEpppGhvCa3ukJ9jzvNrrs+9G2wkVxPjelx5sxZZEviWqsZeGJYU0vtPCg9MT+9xTJEwBwCWiRmq7F921ZZqi4hTFy3Ql1fc1B+Ud5NjosuVqSSR65TZyAL3FpEGja+R/LmK5Cq5joR+6g0HInhexyRWvXhIlm5bIFswz8KOXJYfj1xXK68+lpLz/zqyuzmrTpYmxTI279XV/XPT8Za+nZ5pp883PW5kLqTxMwNRtZEBPwgYITE/DScEcpMU//Baf7sd+StmUtTPcROEssIPUkd4xkBkphL72JdLVyMGUksnh8P2pYRECCJafYSSUwTQBYnApoIkMQMAsj/AK4JJosTAR8IkMR8gOYsQk9ME0AWJwKaCJDEDAJIT0wTTBYnAj4QIIn5AI2emCZoLE4EDCJAEtMEk9NJTQBZnAhoIkASMwggp5OaYLI4EfCBAEnMB2icTmqCxuJEwCACJDFNMDmd1ASQxYmAJgIkMYMAcjqpCSaLEwEfCJDEfIDG6aQmaCxOBAwiQBLTBJPTSU0AWZwIaCJAEjMIIKeTmmCyOBHwgQBJzAdonE5qgsbiRMAgAq4k9thTvQ02F39VbVZXb9v/a6BM+SrxZyAtIgLpHIGD+7+VA+ofdAckk/NN0qX4FCJABIhAxkGAJJZx+oqaEgEiEAKBs0ls79e7iFQYBFq2ai2JiZusHMSKQ4UIxB6BESNfkxEjXkt9OskHM3ynkMRiP2jZIhFwIkAS0xwPJDFNAFmcCGgiQBLTBJAkpgkgixMBTQRIYpoAksQ0AWRxIqCJAElME0CSmCaALE4ENBEgiWkCSBLTBJDFiYAmAiQxTQBJYpoAsjgR0ESAJKYJIElME0AWJwKaCESFxJ56qrvMmj0nWbUxo1+TunXrRKzqFzt2yMKFi2TDho3yww8/yLFjx+Xyyy+XG/PkkTw35pGmTRpLqVJ3hq23fIXKcujQIcmdO7dsSlzvqsPp06fl0ceekCVLllp5b721oEyd+rZcdumlIcuSxFwhZQYiEFUEjJPYX3/9JaVKl5Pff/89WfE6dWrL2DGjPBvy888/y/O9+8rixUvkzJnwRzirVq0ivZ7rKTfffFPI+iMhMRBY167dZP6ChVZdBQsWkGkgsMsuS1V3kpjnbmVGIhAVBIyTGAjg8ce7pFD2ggsukC2bN8pFF13kasR3+/dLmzbt5bvvvrPyZs6cWcqVK2sRSo7sOeTAgQPyzb598umnn8m///5r5bn22mtl7gezJFeuXGfV75XEUNdTTz8jc+Z8YNVRoAAIbHLIOp2NkMRcu5QZiEBUETBOYh07PSTLl39oKV2/fj1rOggZPPgVa/oXTv78809p3KS57NqVdF6zXr260vv5XnLVVVeeVeyrr3bKwJdfkbVr11nflS1TRt5+e5JFek7xQmLw9p7p0VNmznzfKnrLLbfI9GlvuxIY8pLEojo+WTkRcEXAKIlhzapM2fJy8uRJueOOovLKyy9J3XoJlhKVKlWUtya9EVYhTCGnTp1m5bnvvlbyQr8+YfNj+gcS2bJlq5XvjTcmSNUqlSMiMRBYr169Zfo7M5IILH9+maYIDGtvXoQk5gUl5iEC0UPAKIlNm/6ORQiQPn2el7ZtWkvtOvVkz56vLQ8pceO6VMkBC/dVqtaQU6dOyZVX5pbVq1YIpqFugmll4ybNrGzNmjWVQa8MjIjE+vZ7QSZPnmKVyZ8/n7UGdsUVV7g1m/w9ScwzVMxIBKKCgFES+889LS2vCISFnUCsUTkb6Ne3j7Ru3SqkIYMGDZFx/x1vfde7dy9p17aNZ4MTGjaSI0eOyiWXXCyLFy1IMaUMN53sP2Cg8t7etNrJl+9mi8CwixmJkMQiQYt5iYB5BIyR2Pfffy+VKlezdhOrVasqEyckEdLuPXukTp361vuSJUvIe+++E9KKBgl3yZdffiU5cuSQrVsSPXlhXuBIjcScpImdzenTpkRMYGifJOalF5iHCEQPAWMkBi8KxAAZOfJVSWiQRFwQrIthsT5TpkyyZvUKue6661JYdPz4cSlRsrRFgEUKF5a5c2cbszgUiQ0b9qqMGj3GauOmm/IqAptqTWH9CEnMD2osQwTMIWCMxOrVT5CdO3dZnhTCKS688MJkLV8bNVqGDx9h/d29+1PSuVPHFBbAA4MnBsGO5OhRI41ZGExiTl3QCEI3PpgzS84//3xfbZLEfMHGQkTAGAJGSAxelr0LGWpxfe/eb6RmraSI/dtuu1UWzJ+bwoD16zdI6zbtrM86PviA9OjR3ZiBThJr375tsreYM2dOgQeo2yZJzFhXsSIi4AsBIyQ2aPBQGTfuv5YCU6dMtoJTg6V+g4aC2C7IkiULrVAGW9asWSvt2new/uzcuZN0f7qbL2NCFbJJ7LzzzksOjsUJgr59egs2BH766SfBd1gTczvCFKp+kpixrmJFRMAXAtokhnWsylWqy8GDB+Xqq66SdetWW6QQLKNHj5Whw4ZbHz/6yMPy5JP/j+r//Isv5K67kgJhozWdtPWpXaumjFLT1SxZssjSZcsVaT5sfXXDDdfLwgXzrOlwJEISiwQt5iUC5hHQJjGEVCC0IhLJow5wr1q5PLnIkSNHVJBsBevvQoVuk/nzko7+eJUDBw7Ktk8/tbLDw8M6ly22J4a/a9WsKaNHJxGYLc7D6i1aNJeXBw7w2qyVjyQWEVzMTASMI6BNYs8/30emTpsesWJzZr8vRYvenlyuWvVa8u2330r27Nnko62bIwqxGDJ0mIwZM86qCyQEMgomMayBbd60QbJmzZpC119//dVaz0OwLeT18eOkRo3qnu0hiXmGihmJQFQQ0CIxRNeXKVNefjl2zDrcPWDAi1YYRWqCtS/7fOL97dup6P6eyVl79+knU6ZMtf7Gwj4W+L1Ks+b3yMcff2xlnzdvjhQuVOgsEgt3FQ82Ftq0bW+FeOC40ZLFCzydm0QjJDGvvcR8RCA6CGiR2IcfrpAHO3a2NMPhbhzyDifwtOBxQRCXtWH92uT1s927d0u9+g2txXd4TatXfagi8C9xtRpHmnC0CYL4s7VrVqYo4+UAOAo4jx9h3WzcuKQ4MjchibkhxO+JQHQR0CIxXLlj37016c2JUrlyJVdtsYCPhXzIVHXVTbmy/9/JfOKJrjJv/gLru4YJDWTYsCFn3UrhbAAHwO9teZ9s3fqR9XG3J7vKI4885IvEcINGg4RGsk9d8wPxcusG8pHEXLucGYhAVBHwTWJ//PGHdfkhHn6ckcRZyeBrcEJp7ozsv+eeFvLSgP7J2TAtbdSosboz7KD1WYUK5dVNFn2tqPpgwTGn7s88a936CsGdYsuWLpJs2bL5IjEU+uSTbdLiP/cKyBHT40UL5511uiBYD5JYVMcnKycCrgj4JrHZ6vrpbuoaaoiXa3NsTfbvP6Buq0haOA+12I5YMqxPHT161MqDcI0SJYqrTYCikkvdsHrs+DEr3mzjxkSLbCAIi5jxzjRrZzNYvE4n7XKDhwyVsWOTYt5wRxm8xXDrfCQx1zHGDEQgqgj4JjEEp2KhHvLujOly550lPSt6d+Om8tln2638oXYDsVOIW1ZBVG4C4np1+DDrGp1QEimJ4S406IejUJDnej4rHTq0T1UNkphbD/F7IhBdBHyRGKLcy5araHlC11xzjaxbuyqstxJswoQJb8hLA1+2Pm7YMEFGvDospJWbNm2WhYsWyebNW+Twj4flhAqHgNeVO/cVUrx4camn/vkI7tgP5ylFSmJQBJ5eo7ubWJc74kzlPHUgHbe9hhKSWHQHKGsnAm4I+CIxt0rPpe9JYudSb9PW9IgASUyzV0himgCyOBHQRIAkpgkgSUwTQBYnApoIkMQ0ASSJaQLI4kRAEwGSmCaAJDFNAFmcCGgiQBLTBJAkpgkgixMBTQRIYpoAksQ0AWRxIqCJAElME0CSmCaALE4ENBEgiWkCSBLTBJDFiYAmAiQxTQBJYpoAsjgR0ESAJKYJIElME0AWJwKaCJDENAEkiWkCyOJEQBMBkpgmgCQxTQBZnAhoIkAS0wSQJKYJIIsTAU0ESGKaAJLENAFkcSKgiQBJTBNAkpgmgCxOBDQRcCWxsmXLaDaRdsWPqTv7f/vtd0uB66+/LiqK7NjxpZw4ccKq+4knHotKG6yUCBCB1BHA5amJiZvsDMn/MxJvzhA4IkAEiEAGQ4AklsE6jOoSASKQEoGQJJb6v/RO//DhP+lWDahJO9K+v9gfad8HTg3ipT/6KKP6Bj/nzukkH/60H3jxMthoR9qPJZJY+uoDV2340LhCFNMM7I+Ywu3aWLz0Bz0x165O+wzxMthoR9qPJXpi6asPXLXhQ+MKUUwzsD9iCrdrY/HSH/TEXLs67TPEy2CjHWk/luiJpa8+cNWGD40rRDHNwP6IKdyujcVLf9ATc+3qtM8QL4ONdqT9WKInlr76wFUbPjSuEMU0A/sjpnC7NhYv/RE1T6ykgnBrAMZR6tXrwUJnuXGq3EOuXZF6hmh2EuLnvlHpxkDzp9UrDmj+qKFvakVN2VFHNbDYRb8z6vsDKu1SabtKQ1Q6aMgmU3b8qfS50INOv6o8XwfSdPX6vocyXrKYssPZ1sWBsV5aveYLJIypHwL6z1Svs1VKOqhrRkzaMVyp1MWnWtdrjjGSmE/gK6pya4PKPq7+fs1nfeGKmRpsXkgsWA+coO+t0jADdpmywyuJBau8WX3QVCWQtI6YssPWoZt686xKl7so9ZP6voNKH+go7yhr0g6SmAPYjOKJjVU6dw4aTBvV3+UNDTBnNaYGm5PEUOeSELpmU5/BE6ih0jWO7xuo9ws1bTNlh01i8Hrx8ISSzOrDK1UqpFItR4YPA3/D4/QrpuxA+yAweLu2LFNvMI6+VekileDp11SpqCPP/er9m36Vd5QzaYeTxDCD2heBfmNUXnjNfoWemA/ksqoycPPxy4mpFgacTV43q/eYZpoUU4PNSWL9lYLPh1Eyu/oO3lenQB54L/lV+lvDMFN22CT2udLldg/6VFJ5QA4XBPI2U686U0tTdmDMrFEJhHtYpfoqfZSKPY3U59NUQr/AOwap7fVge7gspuxAG04SwyxlvaZukRQniUWCViBvgnqdF3g/SL3uV8meRvZU7wf6qDMWgy0SEoM+WVT6WCWbKIqr99s0bDP10ERKYlC5n0qYFkPQP+gnv2LKjqlKgZYBJeD5rnBRqLX6fnIgD8Ybli90xJQd0IEk5uiJjDCdxCLxPQGd8Yt4VCV4KuephMVwp+uvM8jssqYGW6QkhvYHq/RUQJFW6hXegF8xZYcfEgNJLA8ojh+gu/waocqZsmOHqus2lX5T6VKVsJAfTjADwMI+NjW8eqHh6jNlB9ogiTmQTu8khnUKrMXArf9UpWIB3Z0Dooj67AuNhyS4qKnB5ofEnlHKvBxQCGQ2VMMuU3b4ITH00ycB3bEwfnc6sGO30sGeomN38qQHnbqrPFirxCI/lgR0xFR/kMSCeiG9k9h9St+3Azo/rV7tRVmEgmCBEjJApV46oyuorKnB5ofE4HndG9CnoXqdr2GXKTv8kFhzpfe7Ad1BxLZ36cccU3Zgo6ReQIFX1Ct2KHU2HCK1xZQdJLEMRmKLlL51VfpXpRtU+j6g/1XqFYv8WKTFgit2+EyJqcEWKYndqQzYoBKmMZC8KmETw6+YsiNSEsM0HwvoFQKK63rKpuxoovRxbjBsUX//VyVMd7HQH20xZQf05HTS0Vvp2RPDlj2ICgveWF9xbt3DBGzfVw/YUla9Jv/3As3RaGqweSExrLfcpBLWjOAZ5Azojt292unEDi8kBuK6WiWEWMAOu18wPcZmjI6Y6g/ogAX6R4OUgTf2mUpY6EdbIODjOgqnUtakHU4SG63a87JDj4Bqe4NMxzzuTkaAHk4djAzkb6te7Z0iuwqEIyBGBjJCJb8RzMEqmRpsfoJdocs+leDF2F5nBJClyGrKDj/BrkeUJk+qNMWv8o5ypuywq8T6HIgMRBvqJmUs+GOX+D2V3lLJlJdm0g4/wa44hYBpvq6QxCJAEEGI8LD+UAm/8sEBernVZ4gfw5TykEo4hoRpp66YGmyRkhh0x/QG4QjHdI1Q5U3Z4YfE4NngRwheja6YsiNYD4ypqo5UMISiWPxHfzgDZP3aY9IOkpijF9LrdBJBrDiHB8FiN8INQgmmXYiwhuAVU0xdMTXYvETsQ9e/VNqpEh58Xe/LabspO7xE7KNdBCMjxg1rmBB4NNicwLqmjpiyw00H7EJWCegMvbGDaQs2Anq4VeDyvUk7uCbmADu9khii21+IcNBMVPkfiLBMqOymBpuXNTED6qZahSk7vKyJOZVwBicjNquwppGm7IhEDYT2YNpk76qeUu/vUAn2+BWTdsQ9iWGhL3jxMjXgsSOGXRpIerrF4kulz60RjhZMwbBr+U+E5YKzmxps5yqJAc+5KsGbgejemmCiP/BjjV1SCNa6sEThRXAjzCOBjFjjS+3sqJe6TNhhtxOXJFZAWYcpCQRXiGA72Ys0VplmBTLqusymOqmE0sc+05ao3r/qYkhX9X2ZQB4s2ureOmDKjnOZxJyedCnVJ/Y1UV7GZHAeE/0BArIDhyPRp7IqtzqgEOISbUJLKzvimsRyKOvgiSAcYZ9K2Lb3Ii+pTNgSh+CWCCws+xUTgw1tY7Bh0EHaqzTJRSFMIV8P5JmhXu0jSmltx7lMYrjCZkKgAxAqgrVLv2JiXOFA95yAArjJwutVR85g676qHM6E+hUTdthtx6UnBuOccVMPOgZRaqAjQBQeD2KTsDN2o0o6dz+Z6CTEG+GA97Uq4QYHTA/dYnZyqTw4mgQCxzQBZXA+zq+YsANtn8sk5vxhwawAswO/YqI/LlONfxMY6/ixx9TS7fJJjEVsStjxeuXUe8wM/IoJO+y245bEEPdi785haxjTLCx2Y/crWBA4isA/e1sZnkxHv70TKGeik5w2RDIttiP7oUp6OThNEksaGG1VCo7xi2SomRhXaA8L9X0DDeMSAdxKgcsFQgkOiCNIF84ARPcQO+owZQfqilsSg3E4R+i89gQeyiqV9qkEMsM0E7c+2AepUQYL+whP0L2K10QngXRxCR2khUpYhPUi7VSmNwMZF6hX7JD5FRN2oO1zmcSca60vKizsa3n89Imp/sBxLgR8Om/UwC0ouIsL8YbYgcQpkTwqIUwEF1ZCsMmEeMX08HzY+MU1icFIPPwgM5zYDyeYcmH9CYF8OtMvuw3dwYZL9EC6mN5CHwwobO97Efxyouz5KsELtW8e8FI2OI+uHXZ95zKJ4S40RL1DcNwF4QmhZgRe+sdUf6AtjA+E7uB0h31pYzgdcCU6PElMRXXFpB1xT2IAG7867VTCbZYgs1tUwnU2CCDFlSS4HwkhFaaOVKBN3U5yHtDFcRVcSheJwOW3PTAcSRofSWFHXl077KrOZRLDcR78qOBUBQQPnb1ZE2m3mOoPZ7tY/8WNs/C4sDaMH8wzKu1TCYfu96iEw+LB/9chUt2d+U3acU6QmA7Yfsua7CS/OpgoRztMoGiuDvaHOSxN1ORcW0w+e4o3+BWAhDqQaqLhWNTBwRYLlL23wf7wjlUscsZLf5DEYjFaNNuIl8FGOzQHguHi8dIfJDHDAyMa1cXLYKMd0Rgd/uuMl/4gifkfAzErGS+DjXbEbMh4aihe+oMk5qm70zZTvAw22pG24yi49XjpD5JY+hpXIbWJl8FGO9LXYIuX/iCJpa9xRRJjf8QMAZJYzKD231C8dBLt8D8GolGS/RENVP3XSU/MP3YxK8mHJmZQe2qI/eEJpphlIonFDGr/DfGh8Y9dNEqyP6KBqv86SWL+sYtZST40MYPaU0PsD08wxSwTSSxmUPtviA+Nf+yiUZL9EQ1U/ddJEvOPXcxK8qGJGdSeGmJ/eIIpZplIYjGD2n9DfGj8YxeNkuyPaKDqv06SmH/sYlaSD03MoPbUEPvDE0wxy+RKYn1jpor5htqpKvMGqqUd5vGNtEb2R6SIRTd/vPRHVQUTEiTkfWLRhZG1EwEiQATMIUASM4clayICRCANEEhBYmnQPpskAkSACJhBICNfSW0GAdZCBIhAhkaAJJahu4/KTpjAHgAAAAlJREFUEwEi8D9uF3Rutd8U6gAAAABJRU5ErkJggg==;rotation=5;" vertex="1" parent="TnRPiVpnpAn_v4_r0oWy-93">
          <mxGeometry x="51.97" y="5.030644437146634" width="118.06" height="60" as="geometry" />
        </mxCell>
        <mxCell id="TnRPiVpnpAn_v4_r0oWy-96" value="" style="group" vertex="1" connectable="0" parent="1">
          <mxGeometry x="110" y="299.99935556285334" width="300" height="70.06128887429327" as="geometry" />
        </mxCell>
        <mxCell id="TnRPiVpnpAn_v4_r0oWy-97" style="rounded=0;orthogonalLoop=1;jettySize=auto;html=1;startArrow=cross;startFill=0;endArrow=none;endFill=0;" edge="1" parent="TnRPiVpnpAn_v4_r0oWy-96">
          <mxGeometry relative="1" as="geometry">
            <mxPoint x="300" y="25.030644437146634" as="targetPoint" />
            <mxPoint x="60" y="50.00064443714666" as="sourcePoint" />
          </mxGeometry>
        </mxCell>
        <mxCell id="TnRPiVpnpAn_v4_r0oWy-106" value="" style="rounded=0;whiteSpace=wrap;html=1;strokeColor=none;fillColor=#f8cecc;opacity=80;rotation=-5;" vertex="1" parent="TnRPiVpnpAn_v4_r0oWy-96">
          <mxGeometry x="143" y="46.030644437146634" width="20" height="20" as="geometry" />
        </mxCell>
        <mxCell id="TnRPiVpnpAn_v4_r0oWy-98" value="" style="shape=image;imageAspect=0;aspect=fixed;verticalLabelPosition=bottom;verticalAlign=top;image=data:image/png,iVBORw0KGgoAAAANSUhEUgAAATEAAACbCAYAAAAKlaxUAAAWbXRFWHRteGZpbGUAJTNDbXhmaWxlJTIwaG9zdCUzRCUyMmFwcC5kaWFncmFtcy5uZXQlMjIlMjBtb2RpZmllZCUzRCUyMjIwMjQtMDQtMDNUMTUlM0E1OCUzQTU3Ljg2M1olMjIlMjBhZ2VudCUzRCUyMk1vemlsbGElMkY1LjAlMjAoWDExJTNCJTIwVWJ1bnR1JTNCJTIwTGludXglMjB4ODZfNjQlM0IlMjBydiUzQTEyNC4wKSUyMEdlY2tvJTJGMjAxMDAxMDElMjBGaXJlZm94JTJGMTI0LjAlMjIlMjB2ZXJzaW9uJTNEJTIyMjQuMi4yJTIyJTIwZXRhZyUzRCUyMlZYQW9zUXpsM1FFQ3hfeHlBZ2doJTIyJTIwdHlwZSUzRCUyMmRldmljZSUyMiUyMHNjYWxlJTNEJTIyMi41JTIyJTIwYm9yZGVyJTNEJTIyMCUyMiUzRSUwQSUyMCUyMCUzQ2RpYWdyYW0lMjBuYW1lJTNEJTIyUCVDMyVBMWdpbmEtMSUyMiUyMGlkJTNEJTIyNmZJX2tXOFRrZ3lQZEhXV3ozakElMjIlM0UlMEElMjAlMjAlMjAlMjAlM0NteEdyYXBoTW9kZWwlMjBkeCUzRCUyMjgzNCUyMiUyMGR5JTNEJTIyNDkyJTIyJTIwZ3JpZCUzRCUyMjElMjIlMjBncmlkU2l6ZSUzRCUyMjEwJTIyJTIwZ3VpZGVzJTNEJTIyMSUyMiUyMHRvb2x0aXBzJTNEJTIyMSUyMiUyMGNvbm5lY3QlM0QlMjIxJTIyJTIwYXJyb3dzJTNEJTIyMSUyMiUyMGZvbGQlM0QlMjIxJTIyJTIwcGFnZSUzRCUyMjElMjIlMjBwYWdlU2NhbGUlM0QlMjIxJTIyJTIwcGFnZVdpZHRoJTNEJTIyODI3JTIyJTIwcGFnZUhlaWdodCUzRCUyMjExNjklMjIlMjBtYXRoJTNEJTIyMCUyMiUyMHNoYWRvdyUzRCUyMjAlMjIlM0UlMEElMjAlMjAlMjAlMjAlMjAlMjAlM0Nyb290JTNFJTBBJTIwJTIwJTIwJTIwJTIwJTIwJTIwJTIwJTNDbXhDZWxsJTIwaWQlM0QlMjIwJTIyJTIwJTJGJTNFJTBBJTIwJTIwJTIwJTIwJTIwJTIwJTIwJTIwJTNDbXhDZWxsJTIwaWQlM0QlMjIxJTIyJTIwcGFyZW50JTNEJTIyMCUyMiUyMCUyRiUzRSUwQSUyMCUyMCUyMCUyMCUyMCUyMCUyMCUyMCUzQ214Q2VsbCUyMGlkJTNEJTIyMiUyMiUyMHZhbHVlJTNEJTIyJTIyJTIwc3R5bGUlM0QlMjJncm91cCUyMiUyMHZlcnRleCUzRCUyMjElMjIlMjBjb25uZWN0YWJsZSUzRCUyMjAlMjIlMjBwYXJlbnQlM0QlMjIxJTIyJTNFJTBBJTIwJTIwJTIwJTIwJTIwJTIwJTIwJTIwJTIwJTIwJTNDbXhHZW9tZXRyeSUyMHglM0QlMjIxNzAlMjIlMjB5JTNEJTIyMTIwJTIyJTIwd2lkdGglM0QlMjIxMjAlMjIlMjBoZWlnaHQlM0QlMjI2MCUyMiUyMGFzJTNEJTIyZ2VvbWV0cnklMjIlMjAlMkYlM0UlMEElMjAlMjAlMjAlMjAlMjAlMjAlMjAlMjAlM0MlMkZteENlbGwlM0UlMEElMjAlMjAlMjAlMjAlMjAlMjAlMjAlMjAlM0NteENlbGwlMjBpZCUzRCUyMjMlMjIlMjB2YWx1ZSUzRCUyMiUyMiUyMHN0eWxlJTNEJTIycm91bmRlZCUzRDAlM0J3aGl0ZVNwYWNlJTNEd3JhcCUzQmh0bWwlM0QxJTNCZmlsbENvbG9yJTNEJTIzZGFlOGZjJTNCZm9udFN0eWxlJTNEMCUzQnZlcnRpY2FsQWxpZ24lM0RtaWRkbGUlM0JzdHJva2VDb2xvciUzRCUyMzAwMDAwMCUzQnJvdGF0aW9uJTNEMCUzQiUyMiUyMHZlcnRleCUzRCUyMjElMjIlMjBwYXJlbnQlM0QlMjIyJTIyJTNFJTBBJTIwJTIwJTIwJTIwJTIwJTIwJTIwJTIwJTIwJTIwJTNDbXhHZW9tZXRyeSUyMHglM0QlMjIzMCUyMiUyMHdpZHRoJTNEJTIyOTAlMjIlMjBoZWlnaHQlM0QlMjIyMCUyMiUyMGFzJTNEJTIyZ2VvbWV0cnklMjIlMjAlMkYlM0UlMEElMjAlMjAlMjAlMjAlMjAlMjAlMjAlMjAlM0MlMkZteENlbGwlM0UlMEElMjAlMjAlMjAlMjAlMjAlMjAlMjAlMjAlM0NteENlbGwlMjBpZCUzRCUyMjQlMjIlMjB2YWx1ZSUzRCUyMkFDSyUyMiUyMHN0eWxlJTNEJTIycm91bmRlZCUzRDAlM0J3aGl0ZVNwYWNlJTNEd3JhcCUzQmh0bWwlM0QxJTNCZmlsbENvbG9yJTNEJTIzZGVkZGRhJTNCZm9udFN0eWxlJTNEMCUzQnZlcnRpY2FsQWxpZ24lM0RtaWRkbGUlM0Jyb3RhdGlvbiUzRDAlM0IlMjIlMjB2ZXJ0ZXglM0QlMjIxJTIyJTIwcGFyZW50JTNEJTIyMiUyMiUzRSUwQSUyMCUyMCUyMCUyMCUyMCUyMCUyMCUyMCUyMCUyMCUzQ214R2VvbWV0cnklMjB5JTNEJTIyMjAlMjIlMjB3aWR0aCUzRCUyMjMwJTIyJTIwaGVpZ2h0JTNEJTIyMjAlMjIlMjBhcyUzRCUyMmdlb21ldHJ5JTIyJTIwJTJGJTNFJTBBJTIwJTIwJTIwJTIwJTIwJTIwJTIwJTIwJTNDJTJGbXhDZWxsJTNFJTBBJTIwJTIwJTIwJTIwJTIwJTIwJTIwJTIwJTNDbXhDZWxsJTIwaWQlM0QlMjI1JTIyJTIwdmFsdWUlM0QlMjJVJTIyJTIwc3R5bGUlM0QlMjJyb3VuZGVkJTNEMCUzQndoaXRlU3BhY2UlM0R3cmFwJTNCaHRtbCUzRDElM0JmaWxsQ29sb3IlM0Rub25lJTNCZm9udFN0eWxlJTNEMCUzQnZlcnRpY2FsQWxpZ24lM0RtaWRkbGUlM0Jyb3RhdGlvbiUzRDAlM0IlMjIlMjB2ZXJ0ZXglM0QlMjIxJTIyJTIwcGFyZW50JTNEJTIyMiUyMiUzRSUwQSUyMCUyMCUyMCUyMCUyMCUyMCUyMCUyMCUyMCUyMCUzQ214R2VvbWV0cnklMjB5JTNEJTIyNDAlMjIlMjB3aWR0aCUzRCUyMjIwJTIyJTIwaGVpZ2h0JTNEJTIyMjAlMjIlMjBhcyUzRCUyMmdlb21ldHJ5JTIyJTIwJTJGJTNFJTBBJTIwJTIwJTIwJTIwJTIwJTIwJTIwJTIwJTNDJTJGbXhDZWxsJTNFJTBBJTIwJTIwJTIwJTIwJTIwJTIwJTIwJTIwJTNDbXhDZWxsJTIwaWQlM0QlMjI2JTIyJTIwdmFsdWUlM0QlMjJBJTIyJTIwc3R5bGUlM0QlMjJyb3VuZGVkJTNEMCUzQndoaXRlU3BhY2UlM0R3cmFwJTNCaHRtbCUzRDElM0JmaWxsQ29sb3IlM0Rub25lJTNCZm9udFN0eWxlJTNEMCUzQnZlcnRpY2FsQWxpZ24lM0RtaWRkbGUlM0Jyb3RhdGlvbiUzRDAlM0IlMjIlMjB2ZXJ0ZXglM0QlMjIxJTIyJTIwcGFyZW50JTNEJTIyMiUyMiUzRSUwQSUyMCUyMCUyMCUyMCUyMCUyMCUyMCUyMCUyMCUyMCUzQ214R2VvbWV0cnklMjB4JTNEJTIyMjAlMjIlMjB5JTNEJTIyNDAlMjIlMjB3aWR0aCUzRCUyMjIwJTIyJTIwaGVpZ2h0JTNEJTIyMjAlMjIlMjBhcyUzRCUyMmdlb21ldHJ5JTIyJTIwJTJGJTNFJTBBJTIwJTIwJTIwJTIwJTIwJTIwJTIwJTIwJTNDJTJGbXhDZWxsJTNFJTBBJTIwJTIwJTIwJTIwJTIwJTIwJTIwJTIwJTNDbXhDZWxsJTIwaWQlM0QlMjI3JTIyJTIwdmFsdWUlM0QlMjJQJTIyJTIwc3R5bGUlM0QlMjJyb3VuZGVkJTNEMCUzQndoaXRlU3BhY2UlM0R3cmFwJTNCaHRtbCUzRDElM0JmaWxsQ29sb3IlM0Rub25lJTNCZm9udFN0eWxlJTNEMCUzQnZlcnRpY2FsQWxpZ24lM0RtaWRkbGUlM0Jyb3RhdGlvbiUzRDAlM0IlMjIlMjB2ZXJ0ZXglM0QlMjIxJTIyJTIwcGFyZW50JTNEJTIyMiUyMiUzRSUwQSUyMCUyMCUyMCUyMCUyMCUyMCUyMCUyMCUyMCUyMCUzQ214R2VvbWV0cnklMjB4JTNEJTIyNDAlMjIlMjB5JTNEJTIyNDAlMjIlMjB3aWR0aCUzRCUyMjIwJTIyJTIwaGVpZ2h0JTNEJTIyMjAlMjIlMjBhcyUzRCUyMmdlb21ldHJ5JTIyJTIwJTJGJTNFJTBBJTIwJTIwJTIwJTIwJTIwJTIwJTIwJTIwJTNDJTJGbXhDZWxsJTNFJTBBJTIwJTIwJTIwJTIwJTIwJTIwJTIwJTIwJTNDbXhDZWxsJTIwaWQlM0QlMjI4JTIyJTIwdmFsdWUlM0QlMjJSJTIyJTIwc3R5bGUlM0QlMjJyb3VuZGVkJTNEMCUzQndoaXRlU3BhY2UlM0R3cmFwJTNCaHRtbCUzRDElM0JmaWxsQ29sb3IlM0Rub25lJTNCZm9udFN0eWxlJTNEMCUzQnZlcnRpY2FsQWxpZ24lM0RtaWRkbGUlM0Jyb3RhdGlvbiUzRDAlM0IlMjIlMjB2ZXJ0ZXglM0QlMjIxJTIyJTIwcGFyZW50JTNEJTIyMiUyMiUzRSUwQSUyMCUyMCUyMCUyMCUyMCUyMCUyMCUyMCUyMCUyMCUzQ214R2VvbWV0cnklMjB4JTNEJTIyNjAlMjIlMjB5JTNEJTIyNDAlMjIlMjB3aWR0aCUzRCUyMjIwJTIyJTIwaGVpZ2h0JTNEJTIyMjAlMjIlMjBhcyUzRCUyMmdlb21ldHJ5JTIyJTIwJTJGJTNFJTBBJTIwJTIwJTIwJTIwJTIwJTIwJTIwJTIwJTNDJTJGbXhDZWxsJTNFJTBBJTIwJTIwJTIwJTIwJTIwJTIwJTIwJTIwJTNDbXhDZWxsJTIwaWQlM0QlMjI5JTIyJTIwdmFsdWUlM0QlMjJTJTIyJTIwc3R5bGUlM0QlMjJyb3VuZGVkJTNEMCUzQndoaXRlU3BhY2UlM0R3cmFwJTNCaHRtbCUzRDElM0JmaWxsQ29sb3IlM0Rub25lJTNCZm9udFN0eWxlJTNEMCUzQnZlcnRpY2FsQWxpZ24lM0RtaWRkbGUlM0Jyb3RhdGlvbiUzRDAlM0IlMjIlMjB2ZXJ0ZXglM0QlMjIxJTIyJTIwcGFyZW50JTNEJTIyMiUyMiUzRSUwQSUyMCUyMCUyMCUyMCUyMCUyMCUyMCUyMCUyMCUyMCUzQ214R2VvbWV0cnklMjB4JTNEJTIyODAlMjIlMjB5JTNEJTIyNDAlMjIlMjB3aWR0aCUzRCUyMjIwJTIyJTIwaGVpZ2h0JTNEJTIyMjAlMjIlMjBhcyUzRCUyMmdlb21ldHJ5JTIyJTIwJTJGJTNFJTBBJTIwJTIwJTIwJTIwJTIwJTIwJTIwJTIwJTNDJTJGbXhDZWxsJTNFJTBBJTIwJTIwJTIwJTIwJTIwJTIwJTIwJTIwJTNDbXhDZWxsJTIwaWQlM0QlMjIxMCUyMiUyMHZhbHVlJTNEJTIyRiUyMiUyMHN0eWxlJTNEJTIycm91bmRlZCUzRDAlM0J3aGl0ZVNwYWNlJTNEd3JhcCUzQmh0bWwlM0QxJTNCZmlsbENvbG9yJTNEbm9uZSUzQmZvbnRTdHlsZSUzRDAlM0J2ZXJ0aWNhbEFsaWduJTNEbWlkZGxlJTNCcm90YXRpb24lM0QwJTNCJTIyJTIwdmVydGV4JTNEJTIyMSUyMiUyMHBhcmVudCUzRCUyMjIlMjIlM0UlMEElMjAlMjAlMjAlMjAlMjAlMjAlMjAlMjAlMjAlMjAlM0NteEdlb21ldHJ5JTIweCUzRCUyMjEwMCUyMiUyMHklM0QlMjI0MCUyMiUyMHdpZHRoJTNEJTIyMjAlMjIlMjBoZWlnaHQlM0QlMjIyMCUyMiUyMGFzJTNEJTIyZ2VvbWV0cnklMjIlMjAlMkYlM0UlMEElMjAlMjAlMjAlMjAlMjAlMjAlMjAlMjAlM0MlMkZteENlbGwlM0UlMEElMjAlMjAlMjAlMjAlMjAlMjAlMjAlMjAlM0NteENlbGwlMjBpZCUzRCUyMjExJTIyJTIwdmFsdWUlM0QlMjIlMjIlMjBzdHlsZSUzRCUyMnJvdW5kZWQlM0QwJTNCd2hpdGVTcGFjZSUzRHdyYXAlM0JodG1sJTNEMSUzQmZpbGxDb2xvciUzRCUyM2RlZGRkYSUzQmZvbnRTdHlsZSUzRDAlM0J2ZXJ0aWNhbEFsaWduJTNEbWlkZGxlJTNCcm90YXRpb24lM0QwJTNCJTIyJTIwdmVydGV4JTNEJTIyMSUyMiUyMHBhcmVudCUzRCUyMjIlMjIlM0UlMEElMjAlMjAlMjAlMjAlMjAlMjAlMjAlMjAlMjAlMjAlM0NteEdlb21ldHJ5JTIweCUzRCUyMjMwJTIyJTIweSUzRCUyMjIwJTIyJTIwd2lkdGglM0QlMjI5MCUyMiUyMGhlaWdodCUzRCUyMjIwJTIyJTIwYXMlM0QlMjJnZW9tZXRyeSUyMiUyMCUyRiUzRSUwQSUyMCUyMCUyMCUyMCUyMCUyMCUyMCUyMCUzQyUyRm14Q2VsbCUzRSUwQSUyMCUyMCUyMCUyMCUyMCUyMCUyMCUyMCUzQ214Q2VsbCUyMGlkJTNEJTIyMTIlMjIlMjB2YWx1ZSUzRCUyMlNFUSUyMiUyMHN0eWxlJTNEJTIycm91bmRlZCUzRDAlM0J3aGl0ZVNwYWNlJTNEd3JhcCUzQmh0bWwlM0QxJTNCZmlsbENvbG9yJTNEJTIzZGFlOGZjJTNCZm9udFN0eWxlJTNEMCUzQnZlcnRpY2FsQWxpZ24lM0RtaWRkbGUlM0JzdHJva2VDb2xvciUzRCUyMzAwMDAwMCUzQnJvdGF0aW9uJTNEMCUzQiUyMiUyMHZlcnRleCUzRCUyMjElMjIlMjBwYXJlbnQlM0QlMjIyJTIyJTNFJTBBJTIwJTIwJTIwJTIwJTIwJTIwJTIwJTIwJTIwJTIwJTNDbXhHZW9tZXRyeSUyMHdpZHRoJTNEJTIyMzAlMjIlMjBoZWlnaHQlM0QlMjIyMCUyMiUyMGFzJTNEJTIyZ2VvbWV0cnklMjIlMjAlMkYlM0UlMEElMjAlMjAlMjAlMjAlMjAlMjAlMjAlMjAlM0MlMkZteENlbGwlM0UlMEElMjAlMjAlMjAlMjAlMjAlMjAlM0MlMkZyb290JTNFJTBBJTIwJTIwJTIwJTIwJTNDJTJGbXhHcmFwaE1vZGVsJTNFJTBBJTIwJTIwJTNDJTJGZGlhZ3JhbSUzRSUwQSUzQyUyRm14ZmlsZSUzRSUwQWpQjocAACAASURBVHhe7V0JuE1VG/6ECpVSmpMiCsmQeZ6nKxn/IlMKzaQkyVCkjJHpFyUZUkLmKfNwDZVSypAUSqjQHPKvd9+z77/vce7Z++y1zrn3Hu/3POs5556zhu9719rv+dZa31o3k4icUYlCBIgAEchICGSylcUbklhG6jrqSgSIABA4m8R2HTpFaMIg8NqQFwQJQqw4VIhA7BFwPoMkMR/4k8R8gMYiRMAgAiQxTTBJYpoAsjgR0ESAJGYQQE4nNcFkcSLgAwGSmA/QnEXoiWkCyOJEQBMBkphBAOmJaYLJ4kTABwIkMR+g0RPTBI3FiYBBBEhimmByOqkJIIsTAU0ESGIGAeR0UhNMFicCPhAwQmIHvvtGpk4aJ3t27pDv9u2V7w98KxddfInkvupqubXwHZJw93+kQuWakjlLllRVfKl3N5k0foQPE0TubdtJ+r0yOmzZ06dOyeoVi2XV8oXyydaNcvTwj3Li+DG5NNflcuWVV0vp8lWkWu0EKVuhakQ60BOLCC5mJgLGEdAisd9+PSFDBvSUd6dOlFMnT4ZVrmCh22X4uKmSv0ChkPmiSWLLFs6RwUrPfV/vcgWwaPFS0qPvYLmzTEXXvMhAEvMEEzMRgagh4JvEzpw5Iw+3ayIfLplnKXf++RdI3YZN5ZaChZQHdo38dPSwHNz/rYBAjhw+ZOXJli27zFycaOUJFieJwbO67oYbPRt9W+FiUqla7bPy//vvvzK4/7MycczQ5O8uuOBCKaO8rZvzF5RLcl4qv/z8k+z6crts3bxe4K1BMmfOLM/2GyJtHnjMVQeSmCtEzEAEooqAbxIbP2qQDOnf01KuZJkKMvL1GZJbTcuC5e+//5IJo4fIiEF9ra/gkc1eslmyZM2aIquTxN6Zu0ZKlC6vbbizTpBXx8e6S4eHnpTsOS46q+6ffzoio4b2l2mTxgrID9L7pRFy3/2PhNWDJKbdTayACGgh4IvE4IVVLpFXfvzhoLX2tXLr15Iz52VhFenZ9UGZOf1NK8+oie9J7QaNo0pi8AAfub+Z1QY8rvFT5kmJUuVcwVq6YLZ07dxKTp78R7JmPV9mLFgnRYqWSLUcScwVUmYgAlFFwBeJYapYrsi1lmKVq9eRCdMWuCq5ddM6admoqpUP3g28HKeY9MROnz4t9SoVkX17d1tN9B8yTlrc94CrjnaGYQOfl3EjBlp/VqhSU96csZgk5hk9ZiQCsUXAF4nBA6tUPGnNqmzFajJ55jJXrf/88w8ZrsgBckeJ0tJA7VhGi8SWzJ8ljz3Qwqq+8O3F5f0lm+S8885z1dHO8Ocfv0udCoXl0A8HrI9mLd2cqjdGT8wzrMxIBKKCgC8Sw3SyWL5LBQ87yGHsW7OlWq0GWgqa9MR6PNFBZs14y9IHXhS8qUgFU19MgSGPP91HHu2WRMDBQhKLFFnmJwJmEfBFYlDhxee6yNsTRyVrUzehqdzVrJVUrFpLLrwwW8RamiSxqiVvlu8PfifZsueQj3YePWsTwYty2FGtUPR6K2vpcpVlyuwVJDEvwDEPEYgxAr5JDIGindo0ko82rU+hMkItipUsY00zy1WsLkVLlLIWyN3ESWKt2j8sN+TJ61Yk+ftmLe+3Fu8hWA8rfEM2a4cRMV8zF230XE9wxgp33CBHfvxBhXvklZVb9pDEfCPJgkQgegj4JjGLMFRc1WTljc2c9obsVtH6oQSxYXeWrSh3NW0ldRKapOql6QS7Lk/cKXny5rOaR6hE2cLXWO+r1Kgnr09NimPzIw2rF5edO7Zb8W2ffnOCJOYHRJYhAlFGQIvEnLrt3fOVbFq/WjZtWC2bVTp65MezVM91eW4ZOubtkGtUpkjMuXNatWZ9FVox1zeECdWKqUDYz61p6ad7j5PEfCPJgkQgeggYI7FgFUFqG9etlOWLPpDE9auSo+GxETBu8hwBwTjF1JqYyelkxWJ55PCh7zmdjN74Y81EQBuBqJGYU7OD+/dJn2celTXqADYEa0xLN+xIsVZmisRQv4mFfUxLEQuHnVgcCp/8/nJ6YtrDjRUQAfMI+CIx3ATxy89HJUeOi8+KvE9NRUTAN69fXnZs32ZlmbNsqxS6vVhydpMk5gyxmPTuEilfuUbEyM19f5o89Ugbq1zXHi/IQ12SjlgFC0MsIoaWBYiAUQR8kVjnNnfLiqXzrTOI274+5lmhUUNflJGD+1n5R7z+jtRrmHQsCGKSxJzBrjgyhEPn4YJdjx/7WRLXrbI2HmxpXKuUfLH9E+vP+Su3SYHbipDEPPc0MxKB2CHgi8SchDN72RYrKt6LPPdkR3lP7WRCEHeF+KtokFjwsaMBw8ZLcxWGEUrgIbZtVltwLKp1h0flWXUND3Ts80zSwe8adRpawbypCT0xLz3PPEQgegj4IrFEtWDfplktSyscqp4ya4VrQCmmnwlVi1nX8lx8SU7ZsP2g4GaJaJAY6nQeAMfh9AnTF1jHnYIFhIc70ezreuC57frqC/nnn7/DXh1k10MSi97gZM1EwAsCvkgMFbduUsMKp4Dgep2Br05M9Xwhbn7t0qmlfPbJFis/vJ32nbum0M/kdDIUMSLW66Euz0q7Tl1Cxqrh9AFOITgF4SANm9wbFkeSmJdhxjxEIHoI+CYxHAJv1bi6uo76a0s7XCRYsnQFKaw8mcvUlc8n1U2viNnau1vFjymywy4f5K6mLWXI6MlnWaQTsY/KcEsFrgVyCqL2B73YQ94YOyz5Y8R84SzlzfkKKo/wEhUce1R5Xp+rNbGVVrS/LVhDe7rXQOnwcDeSWPTGH2smAtoI+CYxtIwYqhd7dREspLtJpkyZpNm97aX3wJEpppGhvCa3ukJ9jzvNrrs+9G2wkVxPjelx5sxZZEviWqsZeGJYU0vtPCg9MT+9xTJEwBwCWiRmq7F921ZZqi4hTFy3Ql1fc1B+Ud5NjosuVqSSR65TZyAL3FpEGja+R/LmK5Cq5joR+6g0HInhexyRWvXhIlm5bIFswz8KOXJYfj1xXK68+lpLz/zqyuzmrTpYmxTI279XV/XPT8Za+nZ5pp883PW5kLqTxMwNRtZEBPwgYITE/DScEcpMU//Baf7sd+StmUtTPcROEssIPUkd4xkBkphL72JdLVyMGUksnh8P2pYRECCJafYSSUwTQBYnApoIkMQMAsj/AK4JJosTAR8IkMR8gOYsQk9ME0AWJwKaCJDEDAJIT0wTTBYnAj4QIIn5AI2emCZoLE4EDCJAEtMEk9NJTQBZnAhoIkASMwggp5OaYLI4EfCBAEnMB2icTmqCxuJEwCACJDFNMDmd1ASQxYmAJgIkMYMAcjqpCSaLEwEfCJDEfIDG6aQmaCxOBAwiQBLTBJPTSU0AWZwIaCJAEjMIIKeTmmCyOBHwgQBJzAdonE5qgsbiRMAgAq4k9thTvQ02F39VbVZXb9v/a6BM+SrxZyAtIgLpHIGD+7+VA+ofdAckk/NN0qX4FCJABIhAxkGAJJZx+oqaEgEiEAKBs0ls79e7iFQYBFq2ai2JiZusHMSKQ4UIxB6BESNfkxEjXkt9OskHM3ynkMRiP2jZIhFwIkAS0xwPJDFNAFmcCGgiQBLTBJAkpgkgixMBTQRIYpoAksQ0AWRxIqCJAElME0CSmCaALE4ENBEgiWkCSBLTBJDFiYAmAiQxTQBJYpoAsjgR0ESAJKYJIElME0AWJwKaCESFxJ56qrvMmj0nWbUxo1+TunXrRKzqFzt2yMKFi2TDho3yww8/yLFjx+Xyyy+XG/PkkTw35pGmTRpLqVJ3hq23fIXKcujQIcmdO7dsSlzvqsPp06fl0ceekCVLllp5b721oEyd+rZcdumlIcuSxFwhZQYiEFUEjJPYX3/9JaVKl5Pff/89WfE6dWrL2DGjPBvy888/y/O9+8rixUvkzJnwRzirVq0ivZ7rKTfffFPI+iMhMRBY167dZP6ChVZdBQsWkGkgsMsuS1V3kpjnbmVGIhAVBIyTGAjg8ce7pFD2ggsukC2bN8pFF13kasR3+/dLmzbt5bvvvrPyZs6cWcqVK2sRSo7sOeTAgQPyzb598umnn8m///5r5bn22mtl7gezJFeuXGfV75XEUNdTTz8jc+Z8YNVRoAAIbHLIOp2NkMRcu5QZiEBUETBOYh07PSTLl39oKV2/fj1rOggZPPgVa/oXTv78809p3KS57NqVdF6zXr260vv5XnLVVVeeVeyrr3bKwJdfkbVr11nflS1TRt5+e5JFek7xQmLw9p7p0VNmznzfKnrLLbfI9GlvuxIY8pLEojo+WTkRcEXAKIlhzapM2fJy8uRJueOOovLKyy9J3XoJlhKVKlWUtya9EVYhTCGnTp1m5bnvvlbyQr8+YfNj+gcS2bJlq5XvjTcmSNUqlSMiMRBYr169Zfo7M5IILH9+maYIDGtvXoQk5gUl5iEC0UPAKIlNm/6ORQiQPn2el7ZtWkvtOvVkz56vLQ8pceO6VMkBC/dVqtaQU6dOyZVX5pbVq1YIpqFugmll4ybNrGzNmjWVQa8MjIjE+vZ7QSZPnmKVyZ8/n7UGdsUVV7g1m/w9ScwzVMxIBKKCgFES+889LS2vCISFnUCsUTkb6Ne3j7Ru3SqkIYMGDZFx/x1vfde7dy9p17aNZ4MTGjaSI0eOyiWXXCyLFy1IMaUMN53sP2Cg8t7etNrJl+9mi8CwixmJkMQiQYt5iYB5BIyR2Pfffy+VKlezdhOrVasqEyckEdLuPXukTp361vuSJUvIe+++E9KKBgl3yZdffiU5cuSQrVsSPXlhXuBIjcScpImdzenTpkRMYGifJOalF5iHCEQPAWMkBi8KxAAZOfJVSWiQRFwQrIthsT5TpkyyZvUKue6661JYdPz4cSlRsrRFgEUKF5a5c2cbszgUiQ0b9qqMGj3GauOmm/IqAptqTWH9CEnMD2osQwTMIWCMxOrVT5CdO3dZnhTCKS688MJkLV8bNVqGDx9h/d29+1PSuVPHFBbAA4MnBsGO5OhRI41ZGExiTl3QCEI3PpgzS84//3xfbZLEfMHGQkTAGAJGSAxelr0LGWpxfe/eb6RmraSI/dtuu1UWzJ+bwoD16zdI6zbtrM86PviA9OjR3ZiBThJr375tsreYM2dOgQeo2yZJzFhXsSIi4AsBIyQ2aPBQGTfuv5YCU6dMtoJTg6V+g4aC2C7IkiULrVAGW9asWSvt2new/uzcuZN0f7qbL2NCFbJJ7LzzzksOjsUJgr59egs2BH766SfBd1gTczvCFKp+kpixrmJFRMAXAtokhnWsylWqy8GDB+Xqq66SdetWW6QQLKNHj5Whw4ZbHz/6yMPy5JP/j+r//Isv5K67kgJhozWdtPWpXaumjFLT1SxZssjSZcsVaT5sfXXDDdfLwgXzrOlwJEISiwQt5iUC5hHQJjGEVCC0IhLJow5wr1q5PLnIkSNHVJBsBevvQoVuk/nzko7+eJUDBw7Ktk8/tbLDw8M6ly22J4a/a9WsKaNHJxGYLc7D6i1aNJeXBw7w2qyVjyQWEVzMTASMI6BNYs8/30emTpsesWJzZr8vRYvenlyuWvVa8u2330r27Nnko62bIwqxGDJ0mIwZM86qCyQEMgomMayBbd60QbJmzZpC119//dVaz0OwLeT18eOkRo3qnu0hiXmGihmJQFQQ0CIxRNeXKVNefjl2zDrcPWDAi1YYRWqCtS/7fOL97dup6P6eyVl79+knU6ZMtf7Gwj4W+L1Ks+b3yMcff2xlnzdvjhQuVOgsEgt3FQ82Ftq0bW+FeOC40ZLFCzydm0QjJDGvvcR8RCA6CGiR2IcfrpAHO3a2NMPhbhzyDifwtOBxQRCXtWH92uT1s927d0u9+g2txXd4TatXfagi8C9xtRpHmnC0CYL4s7VrVqYo4+UAOAo4jx9h3WzcuKQ4MjchibkhxO+JQHQR0CIxXLlj37016c2JUrlyJVdtsYCPhXzIVHXVTbmy/9/JfOKJrjJv/gLru4YJDWTYsCFn3UrhbAAHwO9teZ9s3fqR9XG3J7vKI4885IvEcINGg4RGsk9d8wPxcusG8pHEXLucGYhAVBHwTWJ//PGHdfkhHn6ckcRZyeBrcEJp7ozsv+eeFvLSgP7J2TAtbdSosboz7KD1WYUK5dVNFn2tqPpgwTGn7s88a936CsGdYsuWLpJs2bL5IjEU+uSTbdLiP/cKyBHT40UL5511uiBYD5JYVMcnKycCrgj4JrHZ6vrpbuoaaoiXa3NsTfbvP6Buq0haOA+12I5YMqxPHT161MqDcI0SJYqrTYCikkvdsHrs+DEr3mzjxkSLbCAIi5jxzjRrZzNYvE4n7XKDhwyVsWOTYt5wRxm8xXDrfCQx1zHGDEQgqgj4JjEEp2KhHvLujOly550lPSt6d+Om8tln2638oXYDsVOIW1ZBVG4C4np1+DDrGp1QEimJ4S406IejUJDnej4rHTq0T1UNkphbD/F7IhBdBHyRGKLcy5araHlC11xzjaxbuyqstxJswoQJb8hLA1+2Pm7YMEFGvDospJWbNm2WhYsWyebNW+Twj4flhAqHgNeVO/cVUrx4camn/vkI7tgP5ylFSmJQBJ5eo7ubWJc74kzlPHUgHbe9hhKSWHQHKGsnAm4I+CIxt0rPpe9JYudSb9PW9IgASUyzV0himgCyOBHQRIAkpgkgSUwTQBYnApoIkMQ0ASSJaQLI4kRAEwGSmCaAJDFNAFmcCGgiQBLTBJAkpgkgixMBTQRIYpoAksQ0AWRxIqCJAElME0CSmCaALE4ENBEgiWkCSBLTBJDFiYAmAiQxTQBJYpoAsjgR0ESAJKYJIElME0AWJwKaCJDENAEkiWkCyOJEQBMBkpgmgCQxTQBZnAhoIkAS0wSQJKYJIIsTAU0ESGKaAJLENAFkcSKgiQBJTBNAkpgmgCxOBDQRcCWxsmXLaDaRdsWPqTv7f/vtd0uB66+/LiqK7NjxpZw4ccKq+4knHotKG6yUCBCB1BHA5amJiZvsDMn/MxJvzhA4IkAEiEAGQ4AklsE6jOoSASKQEoGQJJb6v/RO//DhP+lWDahJO9K+v9gfad8HTg3ipT/6KKP6Bj/nzukkH/60H3jxMthoR9qPJZJY+uoDV2340LhCFNMM7I+Ywu3aWLz0Bz0x165O+wzxMthoR9qPJXpi6asPXLXhQ+MKUUwzsD9iCrdrY/HSH/TEXLs67TPEy2CjHWk/luiJpa8+cNWGD40rRDHNwP6IKdyujcVLf9ATc+3qtM8QL4ONdqT9WKInlr76wFUbPjSuEMU0A/sjpnC7NhYv/RE1T6ykgnBrAMZR6tXrwUJnuXGq3EOuXZF6hmh2EuLnvlHpxkDzp9UrDmj+qKFvakVN2VFHNbDYRb8z6vsDKu1SabtKQ1Q6aMgmU3b8qfS50INOv6o8XwfSdPX6vocyXrKYssPZ1sWBsV5aveYLJIypHwL6z1Svs1VKOqhrRkzaMVyp1MWnWtdrjjGSmE/gK6pya4PKPq7+fs1nfeGKmRpsXkgsWA+coO+t0jADdpmywyuJBau8WX3QVCWQtI6YssPWoZt686xKl7so9ZP6voNKH+go7yhr0g6SmAPYjOKJjVU6dw4aTBvV3+UNDTBnNaYGm5PEUOeSELpmU5/BE6ih0jWO7xuo9ws1bTNlh01i8Hrx8ISSzOrDK1UqpFItR4YPA3/D4/QrpuxA+yAweLu2LFNvMI6+VekileDp11SpqCPP/er9m36Vd5QzaYeTxDCD2heBfmNUXnjNfoWemA/ksqoycPPxy4mpFgacTV43q/eYZpoUU4PNSWL9lYLPh1Eyu/oO3lenQB54L/lV+lvDMFN22CT2udLldg/6VFJ5QA4XBPI2U686U0tTdmDMrFEJhHtYpfoqfZSKPY3U59NUQr/AOwap7fVge7gspuxAG04SwyxlvaZukRQniUWCViBvgnqdF3g/SL3uV8meRvZU7wf6qDMWgy0SEoM+WVT6WCWbKIqr99s0bDP10ERKYlC5n0qYFkPQP+gnv2LKjqlKgZYBJeD5rnBRqLX6fnIgD8Ybli90xJQd0IEk5uiJjDCdxCLxPQGd8Yt4VCV4KuephMVwp+uvM8jssqYGW6QkhvYHq/RUQJFW6hXegF8xZYcfEgNJLA8ojh+gu/waocqZsmOHqus2lX5T6VKVsJAfTjADwMI+NjW8eqHh6jNlB9ogiTmQTu8khnUKrMXArf9UpWIB3Z0Dooj67AuNhyS4qKnB5ofEnlHKvBxQCGQ2VMMuU3b4ITH00ycB3bEwfnc6sGO30sGeomN38qQHnbqrPFirxCI/lgR0xFR/kMSCeiG9k9h9St+3Azo/rV7tRVmEgmCBEjJApV46oyuorKnB5ofE4HndG9CnoXqdr2GXKTv8kFhzpfe7Ad1BxLZ36cccU3Zgo6ReQIFX1Ct2KHU2HCK1xZQdJLEMRmKLlL51VfpXpRtU+j6g/1XqFYv8WKTFgit2+EyJqcEWKYndqQzYoBKmMZC8KmETw6+YsiNSEsM0HwvoFQKK63rKpuxoovRxbjBsUX//VyVMd7HQH20xZQf05HTS0Vvp2RPDlj2ICgveWF9xbt3DBGzfVw/YUla9Jv/3As3RaGqweSExrLfcpBLWjOAZ5Azojt292unEDi8kBuK6WiWEWMAOu18wPcZmjI6Y6g/ogAX6R4OUgTf2mUpY6EdbIODjOgqnUtakHU4SG63a87JDj4Bqe4NMxzzuTkaAHk4djAzkb6te7Z0iuwqEIyBGBjJCJb8RzMEqmRpsfoJdocs+leDF2F5nBJClyGrKDj/BrkeUJk+qNMWv8o5ypuywq8T6HIgMRBvqJmUs+GOX+D2V3lLJlJdm0g4/wa44hYBpvq6QxCJAEEGI8LD+UAm/8sEBernVZ4gfw5TykEo4hoRpp66YGmyRkhh0x/QG4QjHdI1Q5U3Z4YfE4NngRwheja6YsiNYD4ypqo5UMISiWPxHfzgDZP3aY9IOkpijF9LrdBJBrDiHB8FiN8INQgmmXYiwhuAVU0xdMTXYvETsQ9e/VNqpEh58Xe/LabspO7xE7KNdBCMjxg1rmBB4NNicwLqmjpiyw00H7EJWCegMvbGDaQs2Anq4VeDyvUk7uCbmADu9khii21+IcNBMVPkfiLBMqOymBpuXNTED6qZahSk7vKyJOZVwBicjNquwppGm7IhEDYT2YNpk76qeUu/vUAn2+BWTdsQ9iWGhL3jxMjXgsSOGXRpIerrF4kulz60RjhZMwbBr+U+E5YKzmxps5yqJAc+5KsGbgejemmCiP/BjjV1SCNa6sEThRXAjzCOBjFjjS+3sqJe6TNhhtxOXJFZAWYcpCQRXiGA72Ys0VplmBTLqusymOqmE0sc+05ao3r/qYkhX9X2ZQB4s2ureOmDKjnOZxJyedCnVJ/Y1UV7GZHAeE/0BArIDhyPRp7IqtzqgEOISbUJLKzvimsRyKOvgiSAcYZ9K2Lb3Ii+pTNgSh+CWCCws+xUTgw1tY7Bh0EHaqzTJRSFMIV8P5JmhXu0jSmltx7lMYrjCZkKgAxAqgrVLv2JiXOFA95yAArjJwutVR85g676qHM6E+hUTdthtx6UnBuOccVMPOgZRaqAjQBQeD2KTsDN2o0o6dz+Z6CTEG+GA97Uq4QYHTA/dYnZyqTw4mgQCxzQBZXA+zq+YsANtn8sk5vxhwawAswO/YqI/LlONfxMY6/ixx9TS7fJJjEVsStjxeuXUe8wM/IoJO+y245bEEPdi785haxjTLCx2Y/crWBA4isA/e1sZnkxHv70TKGeik5w2RDIttiP7oUp6OThNEksaGG1VCo7xi2SomRhXaA8L9X0DDeMSAdxKgcsFQgkOiCNIF84ARPcQO+owZQfqilsSg3E4R+i89gQeyiqV9qkEMsM0E7c+2AepUQYL+whP0L2K10QngXRxCR2khUpYhPUi7VSmNwMZF6hX7JD5FRN2oO1zmcSca60vKizsa3n89Imp/sBxLgR8Om/UwC0ouIsL8YbYgcQpkTwqIUwEF1ZCsMmEeMX08HzY+MU1icFIPPwgM5zYDyeYcmH9CYF8OtMvuw3dwYZL9EC6mN5CHwwobO97Efxyouz5KsELtW8e8FI2OI+uHXZ95zKJ4S40RL1DcNwF4QmhZgRe+sdUf6AtjA+E7uB0h31pYzgdcCU6PElMRXXFpB1xT2IAG7867VTCbZYgs1tUwnU2CCDFlSS4HwkhFaaOVKBN3U5yHtDFcRVcSheJwOW3PTAcSRofSWFHXl077KrOZRLDcR78qOBUBQQPnb1ZE2m3mOoPZ7tY/8WNs/C4sDaMH8wzKu1TCYfu96iEw+LB/9chUt2d+U3acU6QmA7Yfsua7CS/OpgoRztMoGiuDvaHOSxN1ORcW0w+e4o3+BWAhDqQaqLhWNTBwRYLlL23wf7wjlUscsZLf5DEYjFaNNuIl8FGOzQHguHi8dIfJDHDAyMa1cXLYKMd0Rgd/uuMl/4gifkfAzErGS+DjXbEbMh4aihe+oMk5qm70zZTvAw22pG24yi49XjpD5JY+hpXIbWJl8FGO9LXYIuX/iCJpa9xRRJjf8QMAZJYzKD231C8dBLt8D8GolGS/RENVP3XSU/MP3YxK8mHJmZQe2qI/eEJpphlIonFDGr/DfGh8Y9dNEqyP6KBqv86SWL+sYtZST40MYPaU0PsD08wxSwTSSxmUPtviA+Nf+yiUZL9EQ1U/ddJEvOPXcxK8qGJGdSeGmJ/eIIpZplIYjGD2n9DfGj8YxeNkuyPaKDqv06SmH/sYlaSD03MoPbUEPvDE0wxy+RKYn1jpor5htqpKvMGqqUd5vGNtEb2R6SIRTd/vPRHVQUTEiTkfWLRhZG1EwEiQATMIUASM4clayICRCANEEhBYmnQPpskAkSACJhBICNfSW0GAdZCBIhAhkaAJJahu4/KTpjAHgAAAAlJREFUEwEi8D9uF3Rutd8U6gAAAABJRU5ErkJggg==;rotation=-5;" vertex="1" parent="TnRPiVpnpAn_v4_r0oWy-96">
          <mxGeometry x="121.94" y="5.030644437146634" width="118.06" height="60" as="geometry" />
        </mxCell>
        <mxCell id="TnRPiVpnpAn_v4_r0oWy-104" value="" style="group" vertex="1" connectable="0" parent="1">
          <mxGeometry x="70" y="256" width="40" height="70" as="geometry" />
        </mxCell>
        <mxCell id="TnRPiVpnpAn_v4_r0oWy-101" value="" style="endArrow=none;dashed=1;html=1;strokeWidth=1;rounded=0;" edge="1" parent="TnRPiVpnpAn_v4_r0oWy-104">
          <mxGeometry width="50" height="50" relative="1" as="geometry">
            <mxPoint as="sourcePoint" />
            <mxPoint x="40" as="targetPoint" />
          </mxGeometry>
        </mxCell>
        <mxCell id="TnRPiVpnpAn_v4_r0oWy-102" value="" style="endArrow=classic;html=1;rounded=0;" edge="1" parent="TnRPiVpnpAn_v4_r0oWy-104">
          <mxGeometry width="50" height="50" relative="1" as="geometry">
            <mxPoint as="sourcePoint" />
            <mxPoint x="40" y="70" as="targetPoint" />
            <Array as="points">
              <mxPoint y="70" />
            </Array>
          </mxGeometry>
        </mxCell>
        <mxCell id="TnRPiVpnpAn_v4_r0oWy-103" value="Timeout" style="edgeLabel;html=1;align=center;verticalAlign=middle;resizable=0;points=[];horizontal=0;" vertex="1" connectable="0" parent="TnRPiVpnpAn_v4_r0oWy-102">
          <mxGeometry x="-0.3404" y="-1" relative="1" as="geometry">
            <mxPoint x="10" y="-1" as="offset" />
          </mxGeometry>
        </mxCell>
      </root>
    </mxGraphModel>
  </diagram>
</mxfile>
